<svg width="454" height="472" viewBox="0 0 454 472" fill="none" xmlns="http://www.w3.org/2000/svg">
<path d="M282.893 160.889C289.538 153.673 294.474 145.188 297.368 136.007C300.262 126.825 301.046 117.161 299.668 107.668C298.291 98.1737 294.783 89.0709 289.381 80.974C283.979 72.877 276.81 65.9743 268.358 60.7321C272.729 54.3051 275.045 46.8143 275.028 39.1647C275.028 17.536 256.971 0 234.651 0C225.839 0.0571715 217.287 2.84043 210.292 7.92762C203.297 13.0148 198.241 20.1284 195.89 28.1894C190.638 19.6416 183.125 12.5442 174.094 7.59981C165.063 2.65547 154.828 0.0357263 144.402 0C111.197 0 84.2741 26.0587 84.2741 58.3715C84.2689 65.2417 85.5147 72.0611 87.9565 78.5286C86.729 78.4367 85.5177 78.3447 84.2741 78.3447C57.6096 78.3447 36.0003 99.3143 36.0003 125.189C36.0003 126.722 36.0972 128.362 36.2587 129.926C25.4091 134.544 16.2066 142.054 9.76979 151.543C3.333 161.032 -0.0608343 172.091 0.000825485 183.376C0.000825485 215.567 26.843 241.625 59.9353 241.625C63.4172 241.623 66.8922 241.331 70.3201 240.752C70.1424 242.683 70.0294 244.645 70.0294 246.622C70.0294 282.675 100.15 311.907 137.28 311.907C151.041 311.9 164.454 307.805 175.638 300.196C184.628 307.69 196.183 311.825 208.148 311.83C235.911 311.83 258.393 290.003 258.393 263.055C258.393 261.89 258.296 260.74 258.215 259.606H258.393C288.11 259.606 312.206 236.214 312.206 207.381C312.251 197.831 309.544 188.452 304.378 180.257C299.211 172.063 291.781 165.365 282.893 160.889Z" fill="#00BCD4"/>
<path d="M282.893 160.889C289.538 153.673 294.474 145.188 297.368 136.007C300.262 126.825 301.046 117.161 299.668 107.668C298.291 98.1737 294.783 89.0709 289.381 80.974C283.979 72.877 276.81 65.9743 268.358 60.7321C272.729 54.3051 275.045 46.8143 275.028 39.1647C275.028 17.536 256.971 0 234.651 0C225.839 0.0571715 217.287 2.84043 210.292 7.92762C203.297 13.0148 198.241 20.1284 195.89 28.1894C190.638 19.6416 183.125 12.5442 174.094 7.59981C165.063 2.65547 154.828 0.0357263 144.402 0C111.197 0 84.2741 26.0587 84.2741 58.3715C84.2689 65.2417 85.5147 72.0611 87.9565 78.5286C86.729 78.4367 85.5177 78.3447 84.2741 78.3447C57.6096 78.3447 36.0003 99.3143 36.0003 125.189C36.0003 126.722 36.0972 128.362 36.2587 129.926C25.4091 134.544 16.2066 142.054 9.76979 151.543C3.333 161.032 -0.0608343 172.091 0.000825485 183.376C0.000825485 215.567 26.843 241.625 59.9353 241.625C63.4172 241.623 66.8922 241.331 70.3201 240.752C70.1424 242.683 70.0294 244.645 70.0294 246.622C70.0294 282.675 100.15 311.907 137.28 311.907C151.041 311.9 164.454 307.805 175.638 300.196C184.628 307.69 196.183 311.825 208.148 311.83C235.911 311.83 258.393 290.003 258.393 263.055C258.393 261.89 258.296 260.74 258.215 259.606H258.393C288.11 259.606 312.206 236.214 312.206 207.381C312.251 197.831 309.544 188.452 304.378 180.257C299.211 172.063 291.781 165.365 282.893 160.889Z" fill="url(#paint0_linear)"/>
<path d="M173.489 91.5581H165.624V455.184H173.489V91.5581Z" fill="#DCE7FF"/>
<path d="M229.4 132.598L164.91 198.697L170.681 203.769L235.171 137.67L229.4 132.598Z" fill="#DCE7FF"/>
<path d="M103.271 207.955L98.5816 213.948L165.447 261.079L170.136 255.086L103.271 207.955Z" fill="#DCE7FF"/>
<path d="M198.248 234.061C188.148 223.862 182.517 210.396 182.501 196.398C182.558 186.742 185.251 177.264 190.317 168.89C195.384 160.516 202.652 153.532 211.411 148.619C207.482 143.209 205.376 136.795 205.371 130.225C205.371 111.83 221.683 96.8083 241.822 96.8083C249.595 96.7362 257.188 99.0339 263.482 103.363C269.776 107.693 274.44 113.825 276.788 120.859C281.756 113.442 288.627 107.344 296.757 103.137C304.887 98.9307 314.01 96.7529 323.269 96.8083C353.261 96.8083 377.583 119.096 377.583 146.596C377.597 152.471 376.481 158.3 374.289 163.794C375.387 163.718 376.485 163.641 377.616 163.641C401.68 163.641 421.222 181.53 421.222 203.603C421.22 204.955 421.145 206.305 420.996 207.65C430.587 211.338 438.81 217.644 444.623 225.77C450.436 233.896 453.579 243.477 453.652 253.298C453.652 280.721 429.426 302.932 399.516 302.932C396.377 302.932 393.243 302.681 390.148 302.181C390.31 303.837 390.407 305.508 390.407 307.194C390.407 337.958 363.226 362.898 329.681 362.898C317.384 362.905 305.363 359.436 295.151 352.935C286.876 359.381 276.495 362.893 265.79 362.867C240.724 362.867 220.407 344.228 220.407 321.25C220.407 320.254 220.504 319.273 220.568 318.307H220.407C193.581 318.307 171.826 298.38 171.826 273.747C171.89 265.451 174.398 257.337 179.067 250.323C183.737 243.31 190.381 237.677 198.248 234.061Z" fill="url(#paint1_linear)"/>
<path d="M306.085 175.797H296.266V485.343H306.085V175.797Z" fill="#DCE7FF"/>
<path d="M247.44 208.875L240.428 215.399L298.665 271.783L305.677 265.259L247.44 208.875Z" fill="#DCE7FF"/>
<path d="M359.738 272.93L299.363 313.144L305.003 320.772L365.379 280.559L359.738 272.93Z" fill="#DCE7FF"/>
<path d="M397.981 203.549C408.15 203.549 416.393 195.725 416.393 186.074C416.393 176.424 408.15 168.6 397.981 168.6C387.813 168.6 379.57 176.424 379.57 186.074C379.57 195.725 387.813 203.549 397.981 203.549Z" fill="#FFEB3B"/>
<path d="M402.358 153.103H396.463V173.612H402.358V153.103Z" fill="#70DDFF"/>
<path d="M353.245 93.4282H347.35V371.275H353.245V93.4282Z" fill="#70DDFF"/>
<path d="M349.853 96.7394C357.952 96.7394 364.518 90.5079 364.518 82.821C364.518 75.1341 357.952 68.9026 349.853 68.9026C341.754 68.9026 335.188 75.1341 335.188 82.821C335.188 90.5079 341.754 96.7394 349.853 96.7394Z" fill="#4F79A4"/>
<path d="M425.938 168.017H370.929V173.612H425.938V168.017Z" fill="#70DDFF"/>
<path d="M349.514 451.475C339.194 451.475 330.763 453.82 330.763 444.025V372.824C330.776 368.106 332.755 363.585 336.268 360.247C339.781 356.91 344.543 355.028 349.514 355.012C354.484 355.028 359.246 356.91 362.759 360.247C366.273 363.585 368.252 368.106 368.264 372.824V444.025C368.264 453.82 359.834 451.475 349.514 451.475Z" fill="#70DDFF"/>
<path d="M402.358 147.508H347.35V153.103H402.358V147.508Z" fill="#70DDFF"/>
<defs>
<linearGradient id="paint0_linear" x1="73.3422" y1="33.8066" x2="177.342" y2="303.807" gradientUnits="userSpaceOnUse">
<stop stop-color="#0470DC"/>
<stop offset="1" stop-color="#70DDFF"/>
</linearGradient>
<linearGradient id="paint1_linear" x1="268.842" y1="172.836" x2="385.842" y2="443.836" gradientUnits="userSpaceOnUse">
<stop stop-color="#0470DC"/>
<stop offset="1" stop-color="#6BD7FD"/>
<stop offset="1" stop-color="#70DDFF"/>
</linearGradient>
</defs>
</svg>
