<svg width="97" height="384" viewBox="0 0 97 384" fill="none" xmlns="http://www.w3.org/2000/svg">
<path d="M72.5161 84.8359H66.6211V105.346H72.5161V84.8359Z" fill="#70DDFF"/>
<path d="M72.5161 79.241H17.5074V84.8359H72.5161V79.241Z" fill="#70DDFF"/>
<path d="M68.1392 135.283C78.3077 135.283 86.5508 127.459 86.5508 117.808C86.5508 108.157 78.3077 100.333 68.1392 100.333C57.9708 100.333 49.7277 108.157 49.7277 117.808C49.7277 127.459 57.9708 135.283 68.1392 135.283Z" fill="#FFEB3B"/>
<path d="M23.4024 25.1616H17.5074V303.009H23.4024V25.1616Z" fill="#70DDFF"/>
<path d="M20.0108 28.4728C28.1099 28.4728 34.6755 22.2413 34.6755 14.5544C34.6755 6.86747 28.1099 0.635986 20.0108 0.635986C11.9117 0.635986 5.34613 6.86747 5.34613 14.5544C5.34613 22.2413 11.9117 28.4728 20.0108 28.4728Z" fill="#4F79A4"/>
<path d="M96.0958 99.7507H41.0872V105.346H96.0958V99.7507Z" fill="#70DDFF"/>
<path d="M19.6716 383.208C9.35142 383.208 0.920837 385.554 0.920837 375.759V304.557C0.933608 299.839 2.91273 295.318 6.42594 291.981C9.93916 288.644 14.701 286.761 19.6716 286.745C24.6421 286.761 29.404 288.644 32.9172 291.981C36.4304 295.318 38.4095 299.839 38.4223 304.557V375.759C38.4223 385.554 29.9917 383.208 19.6716 383.208Z" fill="#70DDFF"/>
</svg>
