<?xml version="1.0" encoding="utf-8"?>
<svg xmlns="http://www.w3.org/2000/svg">
<symbol id="android" viewBox="0 0 19 22">
<path d="M3.21869 8.10254V13.54C3.21869 13.915 3.09369 14.2275 2.84369 14.4775C2.59369 14.7275 2.28119 14.8525 1.90619 14.8525C1.53119 14.8525 1.20306 14.7275 0.921814 14.4775C0.640564 14.2275 0.499939 13.915 0.499939 13.54V8.10254C0.499939 7.75879 0.640564 7.46191 0.921814 7.21191C1.20306 6.96191 1.51556 6.83691 1.85931 6.83691C2.23431 6.83691 2.54681 6.96191 2.79681 7.21191C3.07806 7.46191 3.21869 7.75879 3.21869 8.10254ZM3.68744 15.4619C3.68744 15.8682 3.82806 16.2119 4.10931 16.4932C4.39056 16.7432 4.71869 16.8682 5.09369 16.8682H6.03119V19.7275C6.03119 20.29 6.24994 20.665 6.68744 20.8525C7.12494 21.0713 7.54681 21.0713 7.95306 20.8525C8.39056 20.6338 8.60931 20.2588 8.60931 19.7275V16.8682H10.3906V19.7275C10.3906 20.29 10.5937 20.665 10.9999 20.8525C11.4374 21.0713 11.8749 21.0713 12.3124 20.8525C12.7499 20.665 12.9687 20.29 12.9687 19.7275V16.8682H13.9062C14.2812 16.8682 14.6093 16.7432 14.8906 16.4932C15.1718 16.2119 15.3124 15.8682 15.3124 15.4619V7.07129H3.68744V15.4619ZM15.3124 6.60254H3.64056C3.64056 5.63379 3.90619 4.74316 4.43744 3.93066C4.99994 3.08691 5.73431 2.43066 6.64056 1.96191L5.74994 0.321289C5.68744 0.196289 5.70306 0.118164 5.79681 0.0869141C5.92181 0.0244141 5.99994 0.0400391 6.03119 0.133789L6.96869 1.77441C7.78119 1.43066 8.62494 1.25879 9.49994 1.25879C10.4062 1.25879 11.2499 1.43066 12.0312 1.77441L12.9687 0.133789C12.9999 0.0400391 13.0624 0.0244141 13.1562 0.0869141C13.2812 0.118164 13.3124 0.196289 13.2499 0.321289L12.3593 1.96191C13.2656 2.43066 13.9843 3.08691 14.5156 3.93066C15.0468 4.74316 15.3124 5.63379 15.3124 6.60254ZM7.34369 4.02441C7.34369 3.89941 7.29681 3.79004 7.20306 3.69629C7.10931 3.57129 6.98431 3.50879 6.82806 3.50879C6.70306 3.50879 6.59369 3.57129 6.49994 3.69629C6.40619 3.79004 6.35931 3.89941 6.35931 4.02441C6.35931 4.14941 6.40619 4.25879 6.49994 4.35254C6.59369 4.44629 6.70306 4.49316 6.82806 4.49316C6.98431 4.49316 7.10931 4.44629 7.20306 4.35254C7.29681 4.25879 7.34369 4.14941 7.34369 4.02441ZM12.6406 4.02441C12.6406 3.89941 12.5937 3.79004 12.4999 3.69629C12.4062 3.57129 12.2968 3.50879 12.1718 3.50879C12.0468 3.50879 11.9218 3.57129 11.7968 3.69629C11.7031 3.79004 11.6562 3.89941 11.6562 4.02441C11.6562 4.14941 11.7031 4.25879 11.7968 4.35254C11.9218 4.44629 12.0468 4.49316 12.1718 4.49316C12.2968 4.49316 12.4062 4.44629 12.4999 4.35254C12.5937 4.25879 12.6406 4.14941 12.6406 4.02441ZM17.0937 6.83691C16.7499 6.83691 16.4374 6.96191 16.1562 7.21191C15.9062 7.46191 15.7812 7.77441 15.7812 8.14941V13.54C15.7812 13.915 15.9062 14.2275 16.1562 14.4775C16.4374 14.7275 16.7499 14.8525 17.0937 14.8525C17.4687 14.8525 17.7968 14.7275 18.0781 14.4775C18.3593 14.2275 18.4999 13.915 18.4999 13.54V8.10254C18.4999 7.75879 18.3593 7.46191 18.0781 7.21191C17.7968 6.96191 17.4687 6.83691 17.0937 6.83691Z" fill="white"/>

</symbol>
<symbol id="apple" viewBox="0 0 18 22">
<path d="M14.7657 11.1494C14.7345 9.43066 15.5157 8.10254 17.1095 7.16504C16.2345 5.91504 14.9064 5.21191 13.1251 5.05566C12.6564 5.02441 12.1251 5.08691 11.5314 5.24316C11.1876 5.33691 10.7189 5.49316 10.1251 5.71191C9.53137 5.93066 9.14075 6.04004 8.95325 6.04004C8.76575 6.04004 8.34387 5.91504 7.68762 5.66504C6.65637 5.29004 5.89075 5.10254 5.39075 5.10254C4.4845 5.13379 3.6095 5.38379 2.76575 5.85254C1.95325 6.32129 1.297 7.00879 0.796997 7.91504C0.265747 8.88379 0.00012207 10.04 0.00012207 11.3838C0.00012207 12.6025 0.218872 13.8682 0.656372 15.1807C0.906372 15.8682 1.26575 16.6338 1.7345 17.4775C2.32825 18.5088 2.922 19.3213 3.51575 19.915C4.297 20.6963 5.03137 21.0713 5.71887 21.04C6.06262 21.04 6.56262 20.915 7.21887 20.665C8.03137 20.3525 8.70325 20.1963 9.2345 20.1963C9.76575 20.1963 10.4064 20.3369 11.1564 20.6182C11.8439 20.8994 12.4064 21.04 12.8439 21.04C13.8439 21.0088 14.8595 20.29 15.8907 18.8838C16.672 17.79 17.2501 16.6494 17.6251 15.4619C16.3751 14.8682 15.5314 13.9932 15.0939 12.8369C14.8439 12.2744 14.7345 11.7119 14.7657 11.1494ZM12.0939 3.41504C12.9376 2.41504 13.3126 1.29004 13.2189 0.0400391C12.6564 0.0712891 12.0782 0.243164 11.4845 0.555664C10.8907 0.868164 10.4064 1.24316 10.0314 1.68066C9.12512 2.68066 8.7345 3.80566 8.8595 5.05566C10.0157 5.14941 11.0939 4.61816 12.0939 3.46191V3.41504Z" fill="white"/>

</symbol>
<symbol id="favicon" viewBox="0 0 19 26">
<ellipse cx="9.5" cy="22.8269" rx="9.5" ry="2.55769" fill="#F2F2F2"/>
<path fill-rule="evenodd" clip-rule="evenodd" d="M9.13463 18.0769C9.13463 18.0769 16.0769 12.2308 16.0769 7.48076C16.0769 3.64663 12.9688 0.538452 9.13463 0.538452C5.3005 0.538452 2.19232 3.64663 2.19232 7.48076C2.19232 12.5961 9.13463 18.0769 9.13463 18.0769ZM9.1346 10.0385C10.9508 10.0385 12.4231 8.56616 12.4231 6.74999C12.4231 4.93383 10.9508 3.46153 9.1346 3.46153C7.31843 3.46153 5.84614 4.93383 5.84614 6.74999C5.84614 8.56616 7.31843 10.0385 9.1346 10.0385Z" fill="#13f1fc"/>

</symbol>
<symbol id="fb" viewBox="0 0 8 15">
<path d="M2.10547 14.29V8.02832H0V5.54004H2.10547V3.57129C2.10547 2.53223 2.39714 1.73014 2.98047 1.16504C3.5638 0.581706 4.33854 0.290039 5.30469 0.290039C6.08854 0.290039 6.72656 0.326497 7.21875 0.399414V2.61426H5.90625C5.41406 2.61426 5.07682 2.72363 4.89453 2.94238C4.7487 3.12467 4.67578 3.41634 4.67578 3.81738V5.54004H7L6.67188 8.02832H4.67578V14.29H2.10547Z"/>

</symbol>
<symbol id="footer-left" viewBox="0 0 454 472">
<path d="M282.893 160.889C289.538 153.673 294.474 145.188 297.368 136.007C300.262 126.825 301.046 117.161 299.668 107.668C298.291 98.1737 294.783 89.0709 289.381 80.974C283.979 72.877 276.81 65.9743 268.358 60.7321C272.729 54.3051 275.045 46.8143 275.028 39.1647C275.028 17.536 256.971 0 234.651 0C225.839 0.0571715 217.287 2.84043 210.292 7.92762C203.297 13.0148 198.241 20.1284 195.89 28.1894C190.638 19.6416 183.125 12.5442 174.094 7.59981C165.063 2.65547 154.828 0.0357263 144.402 0C111.197 0 84.2741 26.0587 84.2741 58.3715C84.2689 65.2417 85.5147 72.0611 87.9565 78.5286C86.729 78.4367 85.5177 78.3447 84.2741 78.3447C57.6096 78.3447 36.0003 99.3143 36.0003 125.189C36.0003 126.722 36.0972 128.362 36.2587 129.926C25.4091 134.544 16.2066 142.054 9.76979 151.543C3.333 161.032 -0.0608343 172.091 0.000825485 183.376C0.000825485 215.567 26.843 241.625 59.9353 241.625C63.4172 241.623 66.8922 241.331 70.3201 240.752C70.1424 242.683 70.0294 244.645 70.0294 246.622C70.0294 282.675 100.15 311.907 137.28 311.907C151.041 311.9 164.454 307.805 175.638 300.196C184.628 307.69 196.183 311.825 208.148 311.83C235.911 311.83 258.393 290.003 258.393 263.055C258.393 261.89 258.296 260.74 258.215 259.606H258.393C288.11 259.606 312.206 236.214 312.206 207.381C312.251 197.831 309.544 188.452 304.378 180.257C299.211 172.063 291.781 165.365 282.893 160.889Z" fill="#00BCD4"/>
<path d="M282.893 160.889C289.538 153.673 294.474 145.188 297.368 136.007C300.262 126.825 301.046 117.161 299.668 107.668C298.291 98.1737 294.783 89.0709 289.381 80.974C283.979 72.877 276.81 65.9743 268.358 60.7321C272.729 54.3051 275.045 46.8143 275.028 39.1647C275.028 17.536 256.971 0 234.651 0C225.839 0.0571715 217.287 2.84043 210.292 7.92762C203.297 13.0148 198.241 20.1284 195.89 28.1894C190.638 19.6416 183.125 12.5442 174.094 7.59981C165.063 2.65547 154.828 0.0357263 144.402 0C111.197 0 84.2741 26.0587 84.2741 58.3715C84.2689 65.2417 85.5147 72.0611 87.9565 78.5286C86.729 78.4367 85.5177 78.3447 84.2741 78.3447C57.6096 78.3447 36.0003 99.3143 36.0003 125.189C36.0003 126.722 36.0972 128.362 36.2587 129.926C25.4091 134.544 16.2066 142.054 9.76979 151.543C3.333 161.032 -0.0608343 172.091 0.000825485 183.376C0.000825485 215.567 26.843 241.625 59.9353 241.625C63.4172 241.623 66.8922 241.331 70.3201 240.752C70.1424 242.683 70.0294 244.645 70.0294 246.622C70.0294 282.675 100.15 311.907 137.28 311.907C151.041 311.9 164.454 307.805 175.638 300.196C184.628 307.69 196.183 311.825 208.148 311.83C235.911 311.83 258.393 290.003 258.393 263.055C258.393 261.89 258.296 260.74 258.215 259.606H258.393C288.11 259.606 312.206 236.214 312.206 207.381C312.251 197.831 309.544 188.452 304.378 180.257C299.211 172.063 291.781 165.365 282.893 160.889Z" fill="url(#paint0_linear)"/>
<path d="M173.489 91.5581H165.624V455.184H173.489V91.5581Z" fill="#DCE7FF"/>
<path d="M229.4 132.598L164.91 198.697L170.681 203.769L235.171 137.67L229.4 132.598Z" fill="#DCE7FF"/>
<path d="M103.271 207.955L98.5816 213.948L165.447 261.079L170.136 255.086L103.271 207.955Z" fill="#DCE7FF"/>
<path d="M198.248 234.061C188.148 223.862 182.517 210.396 182.501 196.398C182.558 186.742 185.251 177.264 190.317 168.89C195.384 160.516 202.652 153.532 211.411 148.619C207.482 143.209 205.376 136.795 205.371 130.225C205.371 111.83 221.683 96.8083 241.822 96.8083C249.595 96.7362 257.188 99.0339 263.482 103.363C269.776 107.693 274.44 113.825 276.788 120.859C281.756 113.442 288.627 107.344 296.757 103.137C304.887 98.9307 314.01 96.7529 323.269 96.8083C353.261 96.8083 377.583 119.096 377.583 146.596C377.597 152.471 376.481 158.3 374.289 163.794C375.387 163.718 376.485 163.641 377.616 163.641C401.68 163.641 421.222 181.53 421.222 203.603C421.22 204.955 421.145 206.305 420.996 207.65C430.587 211.338 438.81 217.644 444.623 225.77C450.436 233.896 453.579 243.477 453.652 253.298C453.652 280.721 429.426 302.932 399.516 302.932C396.377 302.932 393.243 302.681 390.148 302.181C390.31 303.837 390.407 305.508 390.407 307.194C390.407 337.958 363.226 362.898 329.681 362.898C317.384 362.905 305.363 359.436 295.151 352.935C286.876 359.381 276.495 362.893 265.79 362.867C240.724 362.867 220.407 344.228 220.407 321.25C220.407 320.254 220.504 319.273 220.568 318.307H220.407C193.581 318.307 171.826 298.38 171.826 273.747C171.89 265.451 174.398 257.337 179.067 250.323C183.737 243.31 190.381 237.677 198.248 234.061Z" fill="url(#paint1_linear)"/>
<path d="M306.085 175.797H296.266V485.343H306.085V175.797Z" fill="#DCE7FF"/>
<path d="M247.44 208.875L240.428 215.399L298.665 271.783L305.677 265.259L247.44 208.875Z" fill="#DCE7FF"/>
<path d="M359.738 272.93L299.363 313.144L305.003 320.772L365.379 280.559L359.738 272.93Z" fill="#DCE7FF"/>
<path d="M397.981 203.549C408.15 203.549 416.393 195.725 416.393 186.074C416.393 176.424 408.15 168.6 397.981 168.6C387.813 168.6 379.57 176.424 379.57 186.074C379.57 195.725 387.813 203.549 397.981 203.549Z" fill="#FFEB3B"/>
<path d="M402.358 153.103H396.463V173.612H402.358V153.103Z" fill="#70DDFF"/>
<path d="M353.245 93.4282H347.35V371.275H353.245V93.4282Z" fill="#70DDFF"/>
<path d="M349.853 96.7394C357.952 96.7394 364.518 90.5079 364.518 82.821C364.518 75.1341 357.952 68.9026 349.853 68.9026C341.754 68.9026 335.188 75.1341 335.188 82.821C335.188 90.5079 341.754 96.7394 349.853 96.7394Z" fill="#4F79A4"/>
<path d="M425.938 168.017H370.929V173.612H425.938V168.017Z" fill="#70DDFF"/>
<path d="M349.514 451.475C339.194 451.475 330.763 453.82 330.763 444.025V372.824C330.776 368.106 332.755 363.585 336.268 360.247C339.781 356.91 344.543 355.028 349.514 355.012C354.484 355.028 359.246 356.91 362.759 360.247C366.273 363.585 368.252 368.106 368.264 372.824V444.025C368.264 453.82 359.834 451.475 349.514 451.475Z" fill="#70DDFF"/>
<path d="M402.358 147.508H347.35V153.103H402.358V147.508Z" fill="#70DDFF"/>
<defs>
<linearGradient id="paint0_linear" x1="73.3422" y1="33.8066" x2="177.342" y2="303.807" gradientUnits="userSpaceOnUse">
<stop stop-color="#0470DC"/>
<stop offset="1" stop-color="#70DDFF"/>
</linearGradient>
<linearGradient id="paint1_linear" x1="268.842" y1="172.836" x2="385.842" y2="443.836" gradientUnits="userSpaceOnUse">
<stop stop-color="#0470DC"/>
<stop offset="1" stop-color="#6BD7FD"/>
<stop offset="1" stop-color="#70DDFF"/>
</linearGradient>
</defs>

</symbol>
<symbol id="gp" viewBox="0 0 18 11">
<path d="M10.5547 4.52441C10.6094 4.83431 10.6367 5.12598 10.6367 5.39941C10.6367 6.40202 10.4271 7.29525 10.0078 8.0791C9.58854 8.84473 8.99609 9.44629 8.23047 9.88379C7.46484 10.3213 6.58984 10.54 5.60547 10.54C4.65755 10.54 3.77344 10.3031 2.95312 9.8291C2.15104 9.35514 1.51302 8.71712 1.03906 7.91504C0.583333 7.11296 0.355469 6.23796 0.355469 5.29004C0.355469 4.34212 0.583333 3.46712 1.03906 2.66504C1.51302 1.86296 2.15104 1.22493 2.95312 0.750977C3.77344 0.277018 4.65755 0.0400391 5.60547 0.0400391C6.97266 0.0400391 8.13932 0.495768 9.10547 1.40723L7.68359 2.77441C7.13672 2.24577 6.44401 1.98145 5.60547 1.98145C5.02214 1.98145 4.47526 2.12728 3.96484 2.41895C3.47266 2.71061 3.08073 3.11165 2.78906 3.62207C2.4974 4.13249 2.35156 4.68848 2.35156 5.29004C2.35156 5.8916 2.4974 6.44759 2.78906 6.95801C3.08073 7.46842 3.47266 7.86947 3.96484 8.16113C4.47526 8.4528 5.02214 8.59863 5.60547 8.59863C6.24349 8.59863 6.79948 8.46191 7.27344 8.18848C7.65625 7.96973 7.96615 7.65983 8.20312 7.25879C8.40365 6.94889 8.53125 6.64811 8.58594 6.35645H5.60547V4.52441H10.5547ZM15.6133 4.71582V3.18457H14.082V4.71582H12.5781V6.24707H14.082V7.77832H15.6133V6.24707H17.1445V4.71582H15.6133Z"/>

</symbol>
<symbol id="icon-map" viewBox="0 0 19 26">
<ellipse cx="9.5" cy="22.8269" rx="9.5" ry="2.55769" fill="#F2F2F2"/>
<path fill-rule="evenodd" clip-rule="evenodd" d="M9.13463 18.0769C9.13463 18.0769 16.0769 12.2308 16.0769 7.48076C16.0769 3.64663 12.9688 0.538452 9.13463 0.538452C5.3005 0.538452 2.19232 3.64663 2.19232 7.48076C2.19232 12.5961 9.13463 18.0769 9.13463 18.0769ZM9.1346 10.0385C10.9508 10.0385 12.4231 8.56616 12.4231 6.74999C12.4231 4.93383 10.9508 3.46153 9.1346 3.46153C7.31843 3.46153 5.84614 4.93383 5.84614 6.74999C5.84614 8.56616 7.31843 10.0385 9.1346 10.0385Z"/>

</symbol>
<symbol id="icon-search" viewBox="0 0 32 31">
<path fill-rule="evenodd" clip-rule="evenodd" d="M19.5925 11.2962C19.5925 15.8781 15.8781 19.5925 11.2962 19.5925C6.71435 19.5925 3 15.8781 3 11.2962C3 6.71435 6.71435 3 11.2962 3C15.8781 3 19.5925 6.71435 19.5925 11.2962ZM18.4865 20.009C16.5332 21.6228 14.0279 22.5925 11.2962 22.5925C5.0575 22.5925 0 17.535 0 11.2962C0 5.0575 5.0575 0 11.2962 0C17.535 0 22.5925 5.0575 22.5925 11.2962C22.5925 13.7211 21.8285 15.9674 20.528 17.8078L31.0496 28.3294L28.9283 30.4507L18.4865 20.009Z" fill="white"/>

</symbol>
<symbol id="lamp" viewBox="0 0 97 384">
<path d="M72.5161 84.8359H66.6211V105.346H72.5161V84.8359Z" fill="#70DDFF"/>
<path d="M72.5161 79.241H17.5074V84.8359H72.5161V79.241Z" fill="#70DDFF"/>
<path d="M68.1392 135.283C78.3077 135.283 86.5508 127.459 86.5508 117.808C86.5508 108.157 78.3077 100.333 68.1392 100.333C57.9708 100.333 49.7277 108.157 49.7277 117.808C49.7277 127.459 57.9708 135.283 68.1392 135.283Z" fill="#FFEB3B"/>
<path d="M23.4024 25.1616H17.5074V303.009H23.4024V25.1616Z" fill="#70DDFF"/>
<path d="M20.0108 28.4728C28.1099 28.4728 34.6755 22.2413 34.6755 14.5544C34.6755 6.86747 28.1099 0.635986 20.0108 0.635986C11.9117 0.635986 5.34613 6.86747 5.34613 14.5544C5.34613 22.2413 11.9117 28.4728 20.0108 28.4728Z" fill="#4F79A4"/>
<path d="M96.0958 99.7507H41.0872V105.346H96.0958V99.7507Z" fill="#70DDFF"/>
<path d="M19.6716 383.208C9.35142 383.208 0.920837 385.554 0.920837 375.759V304.557C0.933608 299.839 2.91273 295.318 6.42594 291.981C9.93916 288.644 14.701 286.761 19.6716 286.745C24.6421 286.761 29.404 288.644 32.9172 291.981C36.4304 295.318 38.4095 299.839 38.4223 304.557V375.759C38.4223 385.554 29.9917 383.208 19.6716 383.208Z" fill="#70DDFF"/>

</symbol>
<symbol id="road" viewBox="0 0 1168 1758">
<g id="road">
<g id="Vector 3.1">
<path d="M78.5 1C78.6667 41.6188 93.9999 129.615 154 156.648C229 190.44 282.5 190.952 358.5 189.928C419.3 189.109 737.667 186.159 882.5 186.5C921 186.591 988.047 200.227 1034 241.5C1088 290 1089.16 335.203 1091.5 375.5C1093.5 409.906 1091.5 586.186 1091.5 642C1091.5 769 1011.5 851 863 852L293 858.93C165 858.93 82 910.916 75.5 1042.5V1353C70 1462 155 1537.67 244.5 1537.67C351 1537.67 416 1539.37 450 1537.67C521 1537.67 585 1587 589 1669.5C589 1674.01 589 1696.23 589 1757.5" stroke="#E6E8EC" stroke-opacity="0.3" stroke-width="150"/>
<path d="M78.5 1C78.6667 41.6188 93.9999 129.615 154 156.648C229 190.44 282.5 190.952 358.5 189.928C419.3 189.109 737.667 186.159 882.5 186.5C921 186.591 988.047 200.227 1034 241.5C1088 290 1089.16 335.203 1091.5 375.5C1093.5 409.906 1091.5 586.186 1091.5 642C1091.5 769 1011.5 851 863 852L293 858.93C165 858.93 82 910.916 75.5 1042.5V1353C70 1462 155 1537.67 244.5 1537.67C351 1537.67 416 1539.37 450 1537.67C521 1537.67 585 1587 589 1669.5C589 1674.01 589 1696.23 589 1757.5" stroke="url(#paint0_linear)" stroke-width="150"/>
</g>
<path id="arrow" fill-rule="evenodd" clip-rule="evenodd" d="M591.818 1675H585.896V1697.7H591.818V1675ZM588.857 1713L599.714 1697.7H578L588.857 1713Z" fill="#F2F3F3"/>
<g id="line">
<path d="M78.5 1C78.6667 41.6188 93.9999 129.615 154 156.648C229 190.44 282.5 190.952 358.5 189.928C419.3 189.109 737.667 186.159 882.5 186.5C921 186.591 988.047 200.227 1034 241.5C1088 290 1089.16 335.203 1091.5 375.5C1093.5 409.906 1091.5 586.186 1091.5 642C1091.5 769 1011.5 851 863 852L293 858.93C165 858.93 82 910.916 75.5 1042.5V1353C70 1462 155 1537.67 244.5 1537.67C351 1537.67 416 1539.37 450 1537.67C521 1537.67 585 1587 589 1669.5C589 1674.01 589 1677.23 589 1738.5" stroke="#F2F3F3" stroke-width="2" stroke-dasharray="10 15"/>
<path d="M78.5 1C78.6667 41.6188 93.9999 129.615 154 156.648C229 190.44 282.5 190.952 358.5 189.928C419.3 189.109 737.667 186.159 882.5 186.5C921 186.591 988.047 200.227 1034 241.5C1088 290 1089.16 335.203 1091.5 375.5C1093.5 409.906 1091.5 586.186 1091.5 642C1091.5 769 1011.5 851 863 852L293 858.93C165 858.93 82 910.916 75.5 1042.5V1353C70 1462 155 1537.67 244.5 1537.67C351 1537.67 416 1539.37 450 1537.67C521 1537.67 585 1587 589 1669.5C589 1674.01 589 1677.23 589 1738.5" stroke="url(#paint1_linear)" stroke-width="2" stroke-dasharray="10 15"/>
</g>
<g id="blue_circle">
<circle id="Ellipse" cx="75" cy="1186" r="17" fill="#13F1FC" fill-opacity="0.1"/>
<g id="Ellipse_2" filter="url(#filter0_d)">
<circle cx="75.5" cy="1186.5" r="8.5" fill="#13F1FC"/>
</g>
</g>
<g id="circle">
<circle id="Ellipse_3" cx="1094" cy="498" r="17" fill="#13F1FC" fill-opacity="0.1"/>
<g id="Ellipse_4" filter="url(#filter1_d)">
<circle cx="1093.5" cy="498.5" r="8.5" fill="#13F1FC"/>
</g>
</g>
</g>
<defs>
<filter id="filter0_d" x="57" y="1172" width="37" height="37" filterUnits="userSpaceOnUse" color-interpolation-filters="sRGB">
<feFlood flood-opacity="0" result="BackgroundImageFix"/>
<feColorMatrix in="SourceAlpha" type="matrix" values="0 0 0 0 0 0 0 0 0 0 0 0 0 0 0 0 0 0 127 0"/>
<feOffset dy="4"/>
<feGaussianBlur stdDeviation="5"/>
<feColorMatrix type="matrix" values="0 0 0 0 0.0745098 0 0 0 0 0.945098 0 0 0 0 0.988235 0 0 0 0.7 0"/>
<feBlend mode="normal" in2="BackgroundImageFix" result="effect1_dropShadow"/>
<feBlend mode="normal" in="SourceGraphic" in2="effect1_dropShadow" result="shape"/>
</filter>
<filter id="filter1_d" x="1075" y="484" width="37" height="37" filterUnits="userSpaceOnUse" color-interpolation-filters="sRGB">
<feFlood flood-opacity="0" result="BackgroundImageFix"/>
<feColorMatrix in="SourceAlpha" type="matrix" values="0 0 0 0 0 0 0 0 0 0 0 0 0 0 0 0 0 0 127 0"/>
<feOffset dy="4"/>
<feGaussianBlur stdDeviation="5"/>
<feColorMatrix type="matrix" values="0 0 0 0 0.0745098 0 0 0 0 0.945098 0 0 0 0 0.988235 0 0 0 0.7 0"/>
<feBlend mode="normal" in2="BackgroundImageFix" result="effect1_dropShadow"/>
<feBlend mode="normal" in="SourceGraphic" in2="effect1_dropShadow" result="shape"/>
</filter>
<linearGradient id="paint0_linear" x1="586.052" y1="1" x2="586.052" y2="1707.5" gradientUnits="userSpaceOnUse">
<stop stop-color="white"/>
<stop offset="0.541436" stop-color="#E6E8EC" stop-opacity="0.1"/>
<stop offset="1" stop-color="white"/>
</linearGradient>
<linearGradient id="paint1_linear" x1="586.052" y1="1" x2="586.052" y2="1707.5" gradientUnits="userSpaceOnUse">
<stop stop-color="white"/>
<stop offset="0.209945" stop-color="#E6E8EC"/>
<stop offset="0.834254" stop-color="#E6E8EC"/>
<stop offset="1" stop-color="white"/>
</linearGradient>
</defs>

</symbol>
<symbol id="tw" viewBox="0 0 14 12">
<path d="M12.5508 3.44629C12.569 3.51921 12.5781 3.6377 12.5781 3.80176C12.5781 5.11426 12.2591 6.38118 11.6211 7.60254C10.9648 8.89681 10.0443 9.92676 8.85938 10.6924C7.5651 11.5492 6.07943 11.9775 4.40234 11.9775C2.79818 11.9775 1.33073 11.5492 0 10.6924C0.200521 10.7106 0.428385 10.7197 0.683594 10.7197C2.01432 10.7197 3.20833 10.3096 4.26562 9.48926C3.6276 9.48926 3.0625 9.30697 2.57031 8.94238C2.09635 8.55957 1.76823 8.08561 1.58594 7.52051C1.76823 7.53874 1.94141 7.54785 2.10547 7.54785C2.36068 7.54785 2.61589 7.52051 2.87109 7.46582C2.21484 7.31999 1.66797 6.98275 1.23047 6.4541C0.792969 5.92546 0.574219 5.32389 0.574219 4.64941V4.59473C0.97526 4.83171 1.40365 4.95931 1.85938 4.97754C1.47656 4.7041 1.16667 4.35775 0.929688 3.93848C0.692708 3.51921 0.574219 3.06348 0.574219 2.57129C0.574219 2.06087 0.710938 1.5778 0.984375 1.12207C1.69531 2.0153 2.5612 2.72624 3.58203 3.25488C4.62109 3.78353 5.72396 4.0752 6.89062 4.12988C6.85417 3.91113 6.83594 3.69238 6.83594 3.47363C6.83594 2.96322 6.96354 2.48926 7.21875 2.05176C7.47396 1.59603 7.82031 1.24056 8.25781 0.985352C8.69531 0.730143 9.16927 0.602539 9.67969 0.602539C10.099 0.602539 10.4818 0.68457 10.8281 0.848633C11.1927 1.0127 11.5117 1.23145 11.7852 1.50488C12.4414 1.37728 13.0521 1.14941 13.6172 0.821289C13.3984 1.49577 12.9792 2.02441 12.3594 2.40723C12.9062 2.33431 13.4531 2.17936 14 1.94238C13.599 2.52572 13.1159 3.02702 12.5508 3.44629Z"/>

</symbol>
<symbol id="wave-app" viewBox="0 0 1440 1219">
<path d="M914.319 114.574C914.319 114.574 888.196 112.998 891.248 131.35C891.248 131.35 890.636 134.592 893.572 136.065C893.572 136.065 893.62 134.689 896.259 135.164C897.197 135.322 898.15 135.368 899.099 135.301C900.381 135.216 901.6 134.714 902.57 133.869C902.57 133.869 909.926 130.827 912.786 118.794C912.786 118.794 914.896 116.171 914.814 115.496L910.4 117.383C910.4 117.383 911.906 120.57 910.723 123.22C910.723 123.22 910.579 117.5 909.733 117.63C909.562 117.63 907.437 118.739 907.437 118.739C907.437 118.739 910.036 124.294 908.077 128.328C908.077 128.328 908.819 121.485 906.626 119.138L903.519 120.983C903.519 120.983 906.551 126.717 904.495 131.398C904.495 131.398 905.024 124.218 902.866 121.423L900.054 123.626C900.054 123.626 902.9 129.278 901.168 133.16C901.168 133.16 900.934 124.803 899.442 124.17C899.442 124.17 896.981 126.345 896.603 127.24C896.603 127.24 898.556 131.371 897.346 133.512C897.346 133.512 896.603 127.942 895.971 127.915C895.971 127.915 893.517 131.605 893.262 134.11C893.385 131.774 894.115 129.51 895.38 127.543C893.963 127.812 892.656 128.489 891.619 129.491C891.619 129.491 892.004 126.882 895.985 126.655C895.985 126.655 898.047 123.853 898.556 123.681C898.556 123.681 894.596 123.351 892.197 124.418C892.197 124.418 894.307 121.96 899.277 123.076L902.027 120.804C902.027 120.804 896.809 120.115 894.603 120.88C894.603 120.88 897.146 118.704 902.776 120.288L905.801 118.477C905.801 118.477 901.353 117.52 898.707 117.864C898.707 117.864 901.505 116.357 906.688 117.988L908.853 117.018C908.853 117.018 905.595 116.378 904.639 116.274C903.684 116.171 903.636 115.909 903.636 115.909C905.699 115.566 907.818 115.804 909.754 116.598C909.754 116.598 914.401 114.863 914.319 114.574Z" fill="#6C63FF"/>
<path d="M-59.4282 304.172C-137.837 387.569 -66.8006 651.831 -38.4812 720.554C25.0214 875.468 -80.8518 857.441 -83.8133 998.058C-86.7748 1138.68 200.391 1216.62 465.751 1137.76C785.764 1042.66 665.637 993.38 1099.66 1008.76C1533.69 1024.13 1579.15 639.195 1551.7 593.768C1528.43 555.273 1579.04 388.877 1510.5 361.54C1478.2 348.658 1478.5 239.04 1367.43 262.227C1245.97 287.581 1142.36 108.289 1017.74 198.281C893.11 288.272 886.692 80.2029 708.708 139.749C530.724 199.294 325.817 131.617 223.5 185.54C27.443 288.866 37.7605 200.801 -59.4282 304.172Z" fill="url(#paint4_linear)"/>
<path d="M288.627 245.568C288.627 245.568 268.862 244.32 271.191 258.816C271.191 258.816 270.721 261.379 272.947 262.541C272.947 262.541 272.982 261.467 274.975 261.833C275.684 261.956 276.405 261.993 277.123 261.941C278.091 261.875 279.012 261.481 279.747 260.818C279.747 260.818 285.303 258.415 287.463 248.912C287.463 248.912 289.062 246.838 288.998 246.305L285.663 247.796C285.663 247.796 286.803 250.315 285.897 252.408C285.897 252.408 285.789 247.887 285.149 247.985C285.019 248.005 283.416 248.858 283.416 248.858C283.416 248.858 285.376 253.243 283.897 256.433C283.897 256.433 284.458 251.027 282.803 249.175L280.456 250.61C280.456 250.61 282.747 255.14 281.193 258.838C281.193 258.838 281.592 253.167 279.961 250.958L277.834 252.696C277.834 252.696 279.987 257.16 278.674 260.226C278.674 260.226 278.503 253.627 277.374 253.128C277.374 253.128 275.512 254.848 275.228 255.551C275.228 255.551 276.703 258.794 275.787 260.504C275.787 260.504 275.226 256.106 274.766 256.081C274.766 256.081 272.911 258.995 272.719 260.995C272.719 260.995 272.799 258.025 274.318 255.806C274.318 255.806 272.524 256.128 271.477 257.344C271.477 257.344 271.766 255.285 274.775 255.103C274.775 255.103 276.308 252.892 276.717 252.759C276.717 252.759 273.726 252.496 271.911 253.339C271.911 253.339 273.508 251.396 277.266 252.28L279.367 250.484C279.367 250.484 275.428 249.922 273.757 250.543C273.757 250.543 275.679 248.823 279.933 250.076L282.219 248.646C282.219 248.646 278.86 247.89 276.86 248.155C276.86 248.155 278.972 246.963 282.89 248.256L284.534 247.487C284.534 247.487 282.073 246.98 281.353 246.899C280.632 246.818 280.595 246.612 280.595 246.612C282.153 246.34 283.753 246.526 285.217 247.15C285.217 247.15 288.686 245.796 288.627 245.568Z" fill="#13F1FC"/>
<path d="M278.622 303.616C278.622 303.616 220.739 300.119 227.559 340.734C227.559 340.734 226.184 347.914 232.701 351.17C232.701 351.17 232.804 348.162 238.64 349.188C240.718 349.533 242.829 349.634 244.93 349.491C247.765 349.304 250.462 348.2 252.616 346.345C252.616 346.345 268.888 339.612 275.212 312.985C275.212 312.985 279.894 307.175 279.708 305.681L269.939 309.86C269.939 309.86 273.28 316.916 270.627 322.781C270.627 322.781 270.311 310.115 268.434 310.39C268.056 310.445 263.361 312.834 263.361 312.834C263.361 312.834 269.101 325.122 264.77 334.057C264.77 334.057 266.413 318.912 261.566 313.722L254.692 317.742C254.692 317.742 261.401 330.436 256.851 340.796C256.851 340.796 258.019 324.908 253.241 318.72L247.013 323.586C247.013 323.586 253.317 336.094 249.474 344.686C249.474 344.686 248.972 326.195 245.666 324.798C245.666 324.798 240.214 329.617 239.383 331.586C239.383 331.586 243.7 340.672 241.019 345.463C241.019 345.463 239.376 333.141 238.028 333.072C238.028 333.072 232.598 341.237 232.034 346.84C232.034 346.84 232.268 338.518 236.715 332.301C236.715 332.301 231.463 333.203 228.397 336.611C228.397 336.611 229.243 330.842 238.056 330.333C238.056 330.333 242.545 324.137 243.741 323.765C243.741 323.765 234.983 323.029 229.669 325.39C229.669 325.39 234.344 319.945 245.35 322.423L251.502 317.391C251.502 317.391 239.967 315.815 235.072 317.556C235.072 317.556 240.702 312.737 253.159 316.248L259.855 312.242C259.855 312.242 250.017 310.122 244.16 310.865C244.16 310.865 250.347 307.526 261.821 311.147L266.633 308.993C266.633 308.993 259.428 307.574 257.318 307.347C255.208 307.12 255.098 306.542 255.098 306.542C259.662 305.78 264.348 306.302 268.633 308.049C268.633 308.049 278.794 304.256 278.622 303.616Z" fill="#13F1FC"/>
<circle cx="959.5" cy="166.04" r="34.5" fill="#E8F5FF"/>
<path opacity="0.5" d="M0 894.636C29.5 857.969 106 787.336 176 798.136C263.5 811.636 311 941.135 405 894.636C499 848.136 522.5 767.136 608 770.636C693.5 774.136 796 957.636 915 888.636C1034 819.636 1141 655.636 1291 748.136C1441 840.636 1422 954.136 1495 929.136" stroke="#E7EFFD" stroke-width="3" stroke-dasharray="10 5"/>
<circle cx="1315.5" cy="225.041" r="6.5" fill="#FECB42"/>
<defs>
<linearGradient id="paint4_linear" x1="-101.88" y1="345.598" x2="1840.42" y2="852.308" gradientUnits="userSpaceOnUse">
<stop stop-color="#0470DC"/>
<stop offset="1" stop-color="#70DDFF"/>
</linearGradient>
</defs>

</symbol>
<symbol id="wave-footer" viewBox="0 0 1440 734">
<circle cx="1071" cy="166.54" r="13" fill="#70DDFF"/>
<path d="M176 78.1355C106 67.3355 29.5 137.969 0 174.636L-8 733.54H1495V209.136C1422 234.136 1441 120.636 1291 28.1356C1141 -64.3644 1034 99.6356 915 168.636C796 237.636 693.5 54.1356 608 50.6356C522.5 47.1356 499 128.136 405 174.636C311 221.135 263.5 91.6355 176 78.1355Z" fill="white"/>
<circle cx="1208.5" cy="163.04" r="3.5" fill="#6C63FF"/>
<circle cx="1110.5" cy="200.04" r="6.5" fill="#DCE7FF"/>
<circle cx="197.5" cy="126.04" r="6.5" fill="#FFEB3B"/>

</symbol>
<symbol id="wave-hero" viewBox="0 0 1440 913">
<path opacity="0.2" d="M459.5 829.5C168.997 848.31 34.5 770 -1 743V630.5H1440V845C1203.5 1021 895.057 795.465 662.5 814.5C522 826 529 825 459.5 829.5Z" fill="url(#paint5_linear)"/>
<path opacity="0.2" d="M1440 2H0V740C423 704 397.5 928 814.5 851C1039.82 809.394 1226.5 922 1440 843V2Z" fill="url(#paint6_linear)"/>
<path d="M0 0H1440V845C1116 690 1062 925.5 629 800C408.927 736.215 294 676.5 0 740.5V0Z" fill="url(#paint7_linear)"/>
<defs>
<linearGradient id="paint5_linear" x1="41.4997" y1="553.001" x2="1679.5" y2="996.501" gradientUnits="userSpaceOnUse">
<stop stop-color="#0470DC"/>
<stop offset="1" stop-color="#13F1FC"/>
</linearGradient>
<linearGradient id="paint6_linear" x1="81.5" y1="763" x2="1440" y2="-288.5" gradientUnits="userSpaceOnUse">
<stop stop-color="#0470DC"/>
<stop offset="1" stop-color="#13F1FC"/>
</linearGradient>
<linearGradient id="paint7_linear" x1="0.000103962" y1="-63.0002" x2="1858.5" y2="1111" gradientUnits="userSpaceOnUse">
<stop stop-color="#0470DC"/>
<stop offset="1" stop-color="#13F1FC"/>
</linearGradient>
</defs>

</symbol></svg>