<?xml version="1.0" encoding="utf-8"?>
<svg xmlns="http://www.w3.org/2000/svg">
<symbol id="android" viewBox="0 0 19 22">
<path d="M3.21869 8.10254V13.54C3.21869 13.915 3.09369 14.2275 2.84369 14.4775C2.59369 14.7275 2.28119 14.8525 1.90619 14.8525C1.53119 14.8525 1.20306 14.7275 0.921814 14.4775C0.640564 14.2275 0.499939 13.915 0.499939 13.54V8.10254C0.499939 7.75879 0.640564 7.46191 0.921814 7.21191C1.20306 6.96191 1.51556 6.83691 1.85931 6.83691C2.23431 6.83691 2.54681 6.96191 2.79681 7.21191C3.07806 7.46191 3.21869 7.75879 3.21869 8.10254ZM3.68744 15.4619C3.68744 15.8682 3.82806 16.2119 4.10931 16.4932C4.39056 16.7432 4.71869 16.8682 5.09369 16.8682H6.03119V19.7275C6.03119 20.29 6.24994 20.665 6.68744 20.8525C7.12494 21.0713 7.54681 21.0713 7.95306 20.8525C8.39056 20.6338 8.60931 20.2588 8.60931 19.7275V16.8682H10.3906V19.7275C10.3906 20.29 10.5937 20.665 10.9999 20.8525C11.4374 21.0713 11.8749 21.0713 12.3124 20.8525C12.7499 20.665 12.9687 20.29 12.9687 19.7275V16.8682H13.9062C14.2812 16.8682 14.6093 16.7432 14.8906 16.4932C15.1718 16.2119 15.3124 15.8682 15.3124 15.4619V7.07129H3.68744V15.4619ZM15.3124 6.60254H3.64056C3.64056 5.63379 3.90619 4.74316 4.43744 3.93066C4.99994 3.08691 5.73431 2.43066 6.64056 1.96191L5.74994 0.321289C5.68744 0.196289 5.70306 0.118164 5.79681 0.0869141C5.92181 0.0244141 5.99994 0.0400391 6.03119 0.133789L6.96869 1.77441C7.78119 1.43066 8.62494 1.25879 9.49994 1.25879C10.4062 1.25879 11.2499 1.43066 12.0312 1.77441L12.9687 0.133789C12.9999 0.0400391 13.0624 0.0244141 13.1562 0.0869141C13.2812 0.118164 13.3124 0.196289 13.2499 0.321289L12.3593 1.96191C13.2656 2.43066 13.9843 3.08691 14.5156 3.93066C15.0468 4.74316 15.3124 5.63379 15.3124 6.60254ZM7.34369 4.02441C7.34369 3.89941 7.29681 3.79004 7.20306 3.69629C7.10931 3.57129 6.98431 3.50879 6.82806 3.50879C6.70306 3.50879 6.59369 3.57129 6.49994 3.69629C6.40619 3.79004 6.35931 3.89941 6.35931 4.02441C6.35931 4.14941 6.40619 4.25879 6.49994 4.35254C6.59369 4.44629 6.70306 4.49316 6.82806 4.49316C6.98431 4.49316 7.10931 4.44629 7.20306 4.35254C7.29681 4.25879 7.34369 4.14941 7.34369 4.02441ZM12.6406 4.02441C12.6406 3.89941 12.5937 3.79004 12.4999 3.69629C12.4062 3.57129 12.2968 3.50879 12.1718 3.50879C12.0468 3.50879 11.9218 3.57129 11.7968 3.69629C11.7031 3.79004 11.6562 3.89941 11.6562 4.02441C11.6562 4.14941 11.7031 4.25879 11.7968 4.35254C11.9218 4.44629 12.0468 4.49316 12.1718 4.49316C12.2968 4.49316 12.4062 4.44629 12.4999 4.35254C12.5937 4.25879 12.6406 4.14941 12.6406 4.02441ZM17.0937 6.83691C16.7499 6.83691 16.4374 6.96191 16.1562 7.21191C15.9062 7.46191 15.7812 7.77441 15.7812 8.14941V13.54C15.7812 13.915 15.9062 14.2275 16.1562 14.4775C16.4374 14.7275 16.7499 14.8525 17.0937 14.8525C17.4687 14.8525 17.7968 14.7275 18.0781 14.4775C18.3593 14.2275 18.4999 13.915 18.4999 13.54V8.10254C18.4999 7.75879 18.3593 7.46191 18.0781 7.21191C17.7968 6.96191 17.4687 6.83691 17.0937 6.83691Z" fill="white"/>

</symbol>
<symbol id="apple" viewBox="0 0 18 22">
<path d="M14.7657 11.1494C14.7345 9.43066 15.5157 8.10254 17.1095 7.16504C16.2345 5.91504 14.9064 5.21191 13.1251 5.05566C12.6564 5.02441 12.1251 5.08691 11.5314 5.24316C11.1876 5.33691 10.7189 5.49316 10.1251 5.71191C9.53137 5.93066 9.14075 6.04004 8.95325 6.04004C8.76575 6.04004 8.34387 5.91504 7.68762 5.66504C6.65637 5.29004 5.89075 5.10254 5.39075 5.10254C4.4845 5.13379 3.6095 5.38379 2.76575 5.85254C1.95325 6.32129 1.297 7.00879 0.796997 7.91504C0.265747 8.88379 0.00012207 10.04 0.00012207 11.3838C0.00012207 12.6025 0.218872 13.8682 0.656372 15.1807C0.906372 15.8682 1.26575 16.6338 1.7345 17.4775C2.32825 18.5088 2.922 19.3213 3.51575 19.915C4.297 20.6963 5.03137 21.0713 5.71887 21.04C6.06262 21.04 6.56262 20.915 7.21887 20.665C8.03137 20.3525 8.70325 20.1963 9.2345 20.1963C9.76575 20.1963 10.4064 20.3369 11.1564 20.6182C11.8439 20.8994 12.4064 21.04 12.8439 21.04C13.8439 21.0088 14.8595 20.29 15.8907 18.8838C16.672 17.79 17.2501 16.6494 17.6251 15.4619C16.3751 14.8682 15.5314 13.9932 15.0939 12.8369C14.8439 12.2744 14.7345 11.7119 14.7657 11.1494ZM12.0939 3.41504C12.9376 2.41504 13.3126 1.29004 13.2189 0.0400391C12.6564 0.0712891 12.0782 0.243164 11.4845 0.555664C10.8907 0.868164 10.4064 1.24316 10.0314 1.68066C9.12512 2.68066 8.7345 3.80566 8.8595 5.05566C10.0157 5.14941 11.0939 4.61816 12.0939 3.46191V3.41504Z" fill="white"/>

</symbol>
<symbol id="fb" viewBox="0 0 8 15">
<path d="M2.10547 14.29V8.02832H0V5.54004H2.10547V3.57129C2.10547 2.53223 2.39714 1.73014 2.98047 1.16504C3.5638 0.581706 4.33854 0.290039 5.30469 0.290039C6.08854 0.290039 6.72656 0.326497 7.21875 0.399414V2.61426H5.90625C5.41406 2.61426 5.07682 2.72363 4.89453 2.94238C4.7487 3.12467 4.67578 3.41634 4.67578 3.81738V5.54004H7L6.67188 8.02832H4.67578V14.29H2.10547Z" fill="#13F1FC"/>

</symbol>
<symbol id="gpl" viewBox="0 0 18 11">
<path d="M10.5547 4.52441C10.6094 4.83431 10.6367 5.12598 10.6367 5.39941C10.6367 6.40202 10.4271 7.29525 10.0078 8.0791C9.58854 8.84473 8.99609 9.44629 8.23047 9.88379C7.46484 10.3213 6.58984 10.54 5.60547 10.54C4.65755 10.54 3.77344 10.3031 2.95312 9.8291C2.15104 9.35514 1.51302 8.71712 1.03906 7.91504C0.583333 7.11296 0.355469 6.23796 0.355469 5.29004C0.355469 4.34212 0.583333 3.46712 1.03906 2.66504C1.51302 1.86296 2.15104 1.22493 2.95312 0.750977C3.77344 0.277018 4.65755 0.0400391 5.60547 0.0400391C6.97266 0.0400391 8.13932 0.495768 9.10547 1.40723L7.68359 2.77441C7.13672 2.24577 6.44401 1.98145 5.60547 1.98145C5.02214 1.98145 4.47526 2.12728 3.96484 2.41895C3.47266 2.71061 3.08073 3.11165 2.78906 3.62207C2.4974 4.13249 2.35156 4.68848 2.35156 5.29004C2.35156 5.8916 2.4974 6.44759 2.78906 6.95801C3.08073 7.46842 3.47266 7.86947 3.96484 8.16113C4.47526 8.4528 5.02214 8.59863 5.60547 8.59863C6.24349 8.59863 6.79948 8.46191 7.27344 8.18848C7.65625 7.96973 7.96615 7.65983 8.20312 7.25879C8.40365 6.94889 8.53125 6.64811 8.58594 6.35645H5.60547V4.52441H10.5547ZM15.6133 4.71582V3.18457H14.082V4.71582H12.5781V6.24707H14.082V7.77832H15.6133V6.24707H17.1445V4.71582H15.6133Z" fill="#BDD3DF"/>

</symbol>
<symbol id="icon-map" viewBox="0 0 19 26">
<ellipse cx="9.5" cy="22.8269" rx="9.5" ry="2.55769" fill="#F2F2F2"/>
<path fill-rule="evenodd" clip-rule="evenodd" d="M9.13463 18.0769C9.13463 18.0769 16.0769 12.2308 16.0769 7.48076C16.0769 3.64663 12.9688 0.538452 9.13463 0.538452C5.3005 0.538452 2.19232 3.64663 2.19232 7.48076C2.19232 12.5961 9.13463 18.0769 9.13463 18.0769ZM9.1346 10.0385C10.9508 10.0385 12.4231 8.56616 12.4231 6.74999C12.4231 4.93383 10.9508 3.46153 9.1346 3.46153C7.31843 3.46153 5.84614 4.93383 5.84614 6.74999C5.84614 8.56616 7.31843 10.0385 9.1346 10.0385Z" fill="#13F1FC"/>

</symbol>
<symbol id="icon-search" viewBox="0 0 32 31">
<path fill-rule="evenodd" clip-rule="evenodd" d="M19.5925 11.2962C19.5925 15.8781 15.8781 19.5925 11.2962 19.5925C6.71435 19.5925 3 15.8781 3 11.2962C3 6.71435 6.71435 3 11.2962 3C15.8781 3 19.5925 6.71435 19.5925 11.2962ZM18.4865 20.009C16.5332 21.6228 14.0279 22.5925 11.2962 22.5925C5.0575 22.5925 0 17.535 0 11.2962C0 5.0575 5.0575 0 11.2962 0C17.535 0 22.5925 5.0575 22.5925 11.2962C22.5925 13.7211 21.8285 15.9674 20.528 17.8078L31.0496 28.3294L28.9283 30.4507L18.4865 20.009Z" fill="white"/>

</symbol>
<symbol id="lamp" viewBox="0 0 97 384">
<path d="M72.5161 84.8359H66.6211V105.346H72.5161V84.8359Z" fill="#70DDFF"/>
<path d="M72.5161 79.241H17.5074V84.8359H72.5161V79.241Z" fill="#70DDFF"/>
<path d="M68.1392 135.283C78.3077 135.283 86.5508 127.459 86.5508 117.808C86.5508 108.157 78.3077 100.333 68.1392 100.333C57.9708 100.333 49.7277 108.157 49.7277 117.808C49.7277 127.459 57.9708 135.283 68.1392 135.283Z" fill="#FFEB3B"/>
<path d="M23.4024 25.1616H17.5074V303.009H23.4024V25.1616Z" fill="#70DDFF"/>
<path d="M20.0108 28.4728C28.1099 28.4728 34.6755 22.2413 34.6755 14.5544C34.6755 6.86747 28.1099 0.635986 20.0108 0.635986C11.9117 0.635986 5.34613 6.86747 5.34613 14.5544C5.34613 22.2413 11.9117 28.4728 20.0108 28.4728Z" fill="#4F79A4"/>
<path d="M96.0958 99.7507H41.0872V105.346H96.0958V99.7507Z" fill="#70DDFF"/>
<path d="M19.6716 383.208C9.35142 383.208 0.920837 385.554 0.920837 375.759V304.557C0.933608 299.839 2.91273 295.318 6.42594 291.981C9.93916 288.644 14.701 286.761 19.6716 286.745C24.6421 286.761 29.404 288.644 32.9172 291.981C36.4304 295.318 38.4095 299.839 38.4223 304.557V375.759C38.4223 385.554 29.9917 383.208 19.6716 383.208Z" fill="#70DDFF"/>

</symbol>
<symbol id="leaf" viewBox="0 0 24 23">
<path d="M23.3186 0.573922C23.3186 0.573922 -2.80418 -1.00249 0.24806 17.35C0.24806 17.35 -0.36376 20.5923 2.57162 22.0654C2.57162 22.0654 2.61972 20.6887 5.2595 21.1637C6.19712 21.3217 7.15015 21.3679 8.09864 21.3013C9.38092 21.2164 10.6002 20.7136 11.5702 19.8695C11.5702 19.8695 18.9259 16.8268 21.7856 4.79375C21.7856 4.79375 23.8961 2.17098 23.8136 1.49636L19.4002 3.38255C19.4002 3.38255 20.9057 6.56979 19.7233 9.22009C19.7233 9.22009 19.5789 3.49958 18.7334 3.63037C18.5615 3.63037 16.4373 4.73868 16.4373 4.73868C16.4373 4.73868 19.0358 10.294 17.0766 14.3279C17.0766 14.3279 17.8191 7.48536 15.6261 5.13795L12.5189 6.98283C12.5189 6.98283 15.5505 12.7171 13.4951 17.3982C13.4951 17.3982 14.0244 10.2183 11.8658 7.4234L9.05419 9.62624C9.05419 9.62624 11.9002 15.2779 10.1678 19.1604C10.1678 19.1604 9.93411 10.8034 8.44236 10.1701C8.44236 10.1701 5.98131 12.3454 5.60322 13.2403C5.60322 13.2403 7.55556 17.3706 6.34567 19.5115C6.34567 19.5115 5.60323 13.9425 4.97078 13.9149C4.97078 13.9149 2.51661 17.6047 2.26226 20.1104C2.38508 17.7741 3.11493 15.5104 4.37959 13.5432C2.96338 13.8118 1.65637 14.4889 0.619263 15.4913C0.619263 15.4913 1.00426 12.8823 4.98455 12.6552C4.98455 12.6552 7.04686 9.85341 7.55557 9.68131C7.55557 9.68131 3.59591 9.35089 1.19673 10.4179C1.19673 10.4179 3.30717 7.96034 8.27738 9.07553L11.0271 6.80385C11.0271 6.80385 5.80947 6.11546 3.60278 6.87957C3.60278 6.87957 6.14633 4.70426 11.7765 6.28756L14.8012 4.47709C14.8012 4.47709 10.3534 3.52023 7.70679 3.86442C7.70679 3.86442 10.5047 2.35685 15.688 3.98833L17.8534 3.01771C17.8534 3.01771 14.595 2.3775 13.6394 2.27425C12.6839 2.17099 12.6358 1.9094 12.6358 1.9094C14.6995 1.56563 16.8179 1.80399 18.754 2.59779C18.754 2.59779 23.4011 0.863046 23.3186 0.573922Z" fill="#6C63FF"/>

</symbol>
<symbol id="road1" viewBox="0 0 1168 1758">
<path d="M78.5 1C78.6667 41.6188 93.9999 129.615 154 156.648C229 190.44 282.5 190.952 358.5 189.928C419.3 189.109 737.667 186.159 882.5 186.5C921 186.591 988.047 200.227 1034 241.5C1088 290 1089.16 335.203 1091.5 375.5C1093.5 409.906 1091.5 586.186 1091.5 642C1091.5 769 1011.5 851 863 852L293 858.93C165 858.93 82 910.916 75.5 1042.5V1353C70 1462 155 1537.67 244.5 1537.67C351 1537.67 416 1539.37 450 1537.67C521 1537.67 585 1587 589 1669.5C589 1674.01 589 1696.23 589 1757.5" stroke="url(#paint0_linear)" stroke-width="150"/>
<path d="M78.5 1C78.6667 41.6188 93.9999 129.615 154 156.648C229 190.44 282.5 190.952 358.5 189.928C419.3 189.109 737.667 186.159 882.5 186.5C921 186.591 988.047 200.227 1034 241.5C1088 290 1089.16 335.203 1091.5 375.5C1093.5 409.906 1091.5 586.186 1091.5 642C1091.5 769 1011.5 851 863 852L293 858.93C165 858.93 82 910.916 75.5 1042.5V1353C70 1462 155 1537.67 244.5 1537.67C351 1537.67 416 1539.37 450 1537.67C521 1537.67 585 1587 589 1669.5C589 1674.01 589 1677.23 589 1738.5" stroke="url(#paint1_linear)" stroke-width="2" stroke-dasharray="10 15"/>
<circle cx="1094" cy="498" r="17" fill="#13F1FC" fill-opacity="0.1"/>
<g filter="url(#filter0_d)">
<circle cx="1093.5" cy="498.5" r="8.5" fill="#13F1FC"/>
</g>
<circle cx="75" cy="1186" r="17" fill="#13F1FC" fill-opacity="0.1"/>
<g filter="url(#filter1_d)">
<circle cx="75.5" cy="1186.5" r="8.5" fill="#13F1FC"/>
</g>
<defs>
<filter id="filter0_d" x="1075" y="484" width="37" height="37" filterUnits="userSpaceOnUse" color-interpolation-filters="sRGB">
<feFlood flood-opacity="0" result="BackgroundImageFix"/>
<feColorMatrix in="SourceAlpha" type="matrix" values="0 0 0 0 0 0 0 0 0 0 0 0 0 0 0 0 0 0 127 0"/>
<feOffset dy="4"/>
<feGaussianBlur stdDeviation="5"/>
<feColorMatrix type="matrix" values="0 0 0 0 0.0745098 0 0 0 0 0.945098 0 0 0 0 0.988235 0 0 0 0.7 0"/>
<feBlend mode="normal" in2="BackgroundImageFix" result="effect1_dropShadow"/>
<feBlend mode="normal" in="SourceGraphic" in2="effect1_dropShadow" result="shape"/>
</filter>
<filter id="filter1_d" x="57" y="1172" width="37" height="37" filterUnits="userSpaceOnUse" color-interpolation-filters="sRGB">
<feFlood flood-opacity="0" result="BackgroundImageFix"/>
<feColorMatrix in="SourceAlpha" type="matrix" values="0 0 0 0 0 0 0 0 0 0 0 0 0 0 0 0 0 0 127 0"/>
<feOffset dy="4"/>
<feGaussianBlur stdDeviation="5"/>
<feColorMatrix type="matrix" values="0 0 0 0 0.0745098 0 0 0 0 0.945098 0 0 0 0 0.988235 0 0 0 0.7 0"/>
<feBlend mode="normal" in2="BackgroundImageFix" result="effect1_dropShadow"/>
<feBlend mode="normal" in="SourceGraphic" in2="effect1_dropShadow" result="shape"/>
</filter>
<linearGradient id="paint0_linear" x1="586.052" y1="1" x2="586.052" y2="1707.5" gradientUnits="userSpaceOnUse">
<stop stop-color="white"/>
<stop offset="0.541436" stop-color="#E6E8EC" stop-opacity="0.1"/>
<stop offset="1" stop-color="white"/>
</linearGradient>
<linearGradient id="paint1_linear" x1="586.052" y1="1" x2="586.052" y2="1707.5" gradientUnits="userSpaceOnUse">
<stop stop-color="white"/>
<stop offset="0.209945" stop-color="#E6E8EC"/>
<stop offset="0.834254" stop-color="#E6E8EC"/>
<stop offset="1" stop-color="white"/>
</linearGradient>
</defs>

</symbol>
<symbol id="sprite">
<symbol id="android" viewBox="0 0 19 22">
<path d="M3.21869 8.10254V13.54C3.21869 13.915 3.09369 14.2275 2.84369 14.4775C2.59369 14.7275 2.28119 14.8525 1.90619 14.8525C1.53119 14.8525 1.20306 14.7275 0.921814 14.4775C0.640564 14.2275 0.499939 13.915 0.499939 13.54V8.10254C0.499939 7.75879 0.640564 7.46191 0.921814 7.21191C1.20306 6.96191 1.51556 6.83691 1.85931 6.83691C2.23431 6.83691 2.54681 6.96191 2.79681 7.21191C3.07806 7.46191 3.21869 7.75879 3.21869 8.10254ZM3.68744 15.4619C3.68744 15.8682 3.82806 16.2119 4.10931 16.4932C4.39056 16.7432 4.71869 16.8682 5.09369 16.8682H6.03119V19.7275C6.03119 20.29 6.24994 20.665 6.68744 20.8525C7.12494 21.0713 7.54681 21.0713 7.95306 20.8525C8.39056 20.6338 8.60931 20.2588 8.60931 19.7275V16.8682H10.3906V19.7275C10.3906 20.29 10.5937 20.665 10.9999 20.8525C11.4374 21.0713 11.8749 21.0713 12.3124 20.8525C12.7499 20.665 12.9687 20.29 12.9687 19.7275V16.8682H13.9062C14.2812 16.8682 14.6093 16.7432 14.8906 16.4932C15.1718 16.2119 15.3124 15.8682 15.3124 15.4619V7.07129H3.68744V15.4619ZM15.3124 6.60254H3.64056C3.64056 5.63379 3.90619 4.74316 4.43744 3.93066C4.99994 3.08691 5.73431 2.43066 6.64056 1.96191L5.74994 0.321289C5.68744 0.196289 5.70306 0.118164 5.79681 0.0869141C5.92181 0.0244141 5.99994 0.0400391 6.03119 0.133789L6.96869 1.77441C7.78119 1.43066 8.62494 1.25879 9.49994 1.25879C10.4062 1.25879 11.2499 1.43066 12.0312 1.77441L12.9687 0.133789C12.9999 0.0400391 13.0624 0.0244141 13.1562 0.0869141C13.2812 0.118164 13.3124 0.196289 13.2499 0.321289L12.3593 1.96191C13.2656 2.43066 13.9843 3.08691 14.5156 3.93066C15.0468 4.74316 15.3124 5.63379 15.3124 6.60254ZM7.34369 4.02441C7.34369 3.89941 7.29681 3.79004 7.20306 3.69629C7.10931 3.57129 6.98431 3.50879 6.82806 3.50879C6.70306 3.50879 6.59369 3.57129 6.49994 3.69629C6.40619 3.79004 6.35931 3.89941 6.35931 4.02441C6.35931 4.14941 6.40619 4.25879 6.49994 4.35254C6.59369 4.44629 6.70306 4.49316 6.82806 4.49316C6.98431 4.49316 7.10931 4.44629 7.20306 4.35254C7.29681 4.25879 7.34369 4.14941 7.34369 4.02441ZM12.6406 4.02441C12.6406 3.89941 12.5937 3.79004 12.4999 3.69629C12.4062 3.57129 12.2968 3.50879 12.1718 3.50879C12.0468 3.50879 11.9218 3.57129 11.7968 3.69629C11.7031 3.79004 11.6562 3.89941 11.6562 4.02441C11.6562 4.14941 11.7031 4.25879 11.7968 4.35254C11.9218 4.44629 12.0468 4.49316 12.1718 4.49316C12.2968 4.49316 12.4062 4.44629 12.4999 4.35254C12.5937 4.25879 12.6406 4.14941 12.6406 4.02441ZM17.0937 6.83691C16.7499 6.83691 16.4374 6.96191 16.1562 7.21191C15.9062 7.46191 15.7812 7.77441 15.7812 8.14941V13.54C15.7812 13.915 15.9062 14.2275 16.1562 14.4775C16.4374 14.7275 16.7499 14.8525 17.0937 14.8525C17.4687 14.8525 17.7968 14.7275 18.0781 14.4775C18.3593 14.2275 18.4999 13.915 18.4999 13.54V8.10254C18.4999 7.75879 18.3593 7.46191 18.0781 7.21191C17.7968 6.96191 17.4687 6.83691 17.0937 6.83691Z" fill="white"/>

</symbol>
<symbol id="apple" viewBox="0 0 18 22">
<path d="M14.7657 11.1494C14.7345 9.43066 15.5157 8.10254 17.1095 7.16504C16.2345 5.91504 14.9064 5.21191 13.1251 5.05566C12.6564 5.02441 12.1251 5.08691 11.5314 5.24316C11.1876 5.33691 10.7189 5.49316 10.1251 5.71191C9.53137 5.93066 9.14075 6.04004 8.95325 6.04004C8.76575 6.04004 8.34387 5.91504 7.68762 5.66504C6.65637 5.29004 5.89075 5.10254 5.39075 5.10254C4.4845 5.13379 3.6095 5.38379 2.76575 5.85254C1.95325 6.32129 1.297 7.00879 0.796997 7.91504C0.265747 8.88379 0.00012207 10.04 0.00012207 11.3838C0.00012207 12.6025 0.218872 13.8682 0.656372 15.1807C0.906372 15.8682 1.26575 16.6338 1.7345 17.4775C2.32825 18.5088 2.922 19.3213 3.51575 19.915C4.297 20.6963 5.03137 21.0713 5.71887 21.04C6.06262 21.04 6.56262 20.915 7.21887 20.665C8.03137 20.3525 8.70325 20.1963 9.2345 20.1963C9.76575 20.1963 10.4064 20.3369 11.1564 20.6182C11.8439 20.8994 12.4064 21.04 12.8439 21.04C13.8439 21.0088 14.8595 20.29 15.8907 18.8838C16.672 17.79 17.2501 16.6494 17.6251 15.4619C16.3751 14.8682 15.5314 13.9932 15.0939 12.8369C14.8439 12.2744 14.7345 11.7119 14.7657 11.1494ZM12.0939 3.41504C12.9376 2.41504 13.3126 1.29004 13.2189 0.0400391C12.6564 0.0712891 12.0782 0.243164 11.4845 0.555664C10.8907 0.868164 10.4064 1.24316 10.0314 1.68066C9.12512 2.68066 8.7345 3.80566 8.8595 5.05566C10.0157 5.14941 11.0939 4.61816 12.0939 3.46191V3.41504Z" fill="white"/>

</symbol>
<symbol id="fb" viewBox="0 0 8 15">
<path d="M2.10547 14.29V8.02832H0V5.54004H2.10547V3.57129C2.10547 2.53223 2.39714 1.73014 2.98047 1.16504C3.5638 0.581706 4.33854 0.290039 5.30469 0.290039C6.08854 0.290039 6.72656 0.326497 7.21875 0.399414V2.61426H5.90625C5.41406 2.61426 5.07682 2.72363 4.89453 2.94238C4.7487 3.12467 4.67578 3.41634 4.67578 3.81738V5.54004H7L6.67188 8.02832H4.67578V14.29H2.10547Z" fill="#13F1FC"/>

</symbol>
<symbol id="gpl" viewBox="0 0 18 11">
<path d="M10.5547 4.52441C10.6094 4.83431 10.6367 5.12598 10.6367 5.39941C10.6367 6.40202 10.4271 7.29525 10.0078 8.0791C9.58854 8.84473 8.99609 9.44629 8.23047 9.88379C7.46484 10.3213 6.58984 10.54 5.60547 10.54C4.65755 10.54 3.77344 10.3031 2.95312 9.8291C2.15104 9.35514 1.51302 8.71712 1.03906 7.91504C0.583333 7.11296 0.355469 6.23796 0.355469 5.29004C0.355469 4.34212 0.583333 3.46712 1.03906 2.66504C1.51302 1.86296 2.15104 1.22493 2.95312 0.750977C3.77344 0.277018 4.65755 0.0400391 5.60547 0.0400391C6.97266 0.0400391 8.13932 0.495768 9.10547 1.40723L7.68359 2.77441C7.13672 2.24577 6.44401 1.98145 5.60547 1.98145C5.02214 1.98145 4.47526 2.12728 3.96484 2.41895C3.47266 2.71061 3.08073 3.11165 2.78906 3.62207C2.4974 4.13249 2.35156 4.68848 2.35156 5.29004C2.35156 5.8916 2.4974 6.44759 2.78906 6.95801C3.08073 7.46842 3.47266 7.86947 3.96484 8.16113C4.47526 8.4528 5.02214 8.59863 5.60547 8.59863C6.24349 8.59863 6.79948 8.46191 7.27344 8.18848C7.65625 7.96973 7.96615 7.65983 8.20312 7.25879C8.40365 6.94889 8.53125 6.64811 8.58594 6.35645H5.60547V4.52441H10.5547ZM15.6133 4.71582V3.18457H14.082V4.71582H12.5781V6.24707H14.082V7.77832H15.6133V6.24707H17.1445V4.71582H15.6133Z" fill="#BDD3DF"/>

</symbol>
<symbol id="icon-map" viewBox="0 0 19 26">
<ellipse cx="9.5" cy="22.8269" rx="9.5" ry="2.55769" fill="#F2F2F2"/>
<path clip-rule="evenodd" d="M9.13463 18.0769C9.13463 18.0769 16.0769 12.2308 16.0769 7.48076C16.0769 3.64663 12.9688 0.538452 9.13463 0.538452C5.3005 0.538452 2.19232 3.64663 2.19232 7.48076C2.19232 12.5961 9.13463 18.0769 9.13463 18.0769ZM9.1346 10.0385C10.9508 10.0385 12.4231 8.56616 12.4231 6.74999C12.4231 4.93383 10.9508 3.46153 9.1346 3.46153C7.31843 3.46153 5.84614 4.93383 5.84614 6.74999C5.84614 8.56616 7.31843 10.0385 9.1346 10.0385Z"/>

</symbol>
<symbol id="icon-search" viewBox="0 0 32 31">
<path clip-rule="evenodd" d="M19.5925 11.2962C19.5925 15.8781 15.8781 19.5925 11.2962 19.5925C6.71435 19.5925 3 15.8781 3 11.2962C3 6.71435 6.71435 3 11.2962 3C15.8781 3 19.5925 6.71435 19.5925 11.2962ZM18.4865 20.009C16.5332 21.6228 14.0279 22.5925 11.2962 22.5925C5.0575 22.5925 0 17.535 0 11.2962C0 5.0575 5.0575 0 11.2962 0C17.535 0 22.5925 5.0575 22.5925 11.2962C22.5925 13.7211 21.8285 15.9674 20.528 17.8078L31.0496 28.3294L28.9283 30.4507L18.4865 20.009Z"/>

</symbol>
<symbol id="lamp" viewBox="0 0 97 384">
<path d="M72.5161 84.8359H66.6211V105.346H72.5161V84.8359Z" fill="#70DDFF"/>
<path d="M72.5161 79.241H17.5074V84.8359H72.5161V79.241Z" fill="#70DDFF"/>
<path d="M68.1392 135.283C78.3077 135.283 86.5508 127.459 86.5508 117.808C86.5508 108.157 78.3077 100.333 68.1392 100.333C57.9708 100.333 49.7277 108.157 49.7277 117.808C49.7277 127.459 57.9708 135.283 68.1392 135.283Z" fill="#FFEB3B"/>
<path d="M23.4024 25.1616H17.5074V303.009H23.4024V25.1616Z" fill="#70DDFF"/>
<path d="M20.0108 28.4728C28.1099 28.4728 34.6755 22.2413 34.6755 14.5544C34.6755 6.86747 28.1099 0.635986 20.0108 0.635986C11.9117 0.635986 5.34613 6.86747 5.34613 14.5544C5.34613 22.2413 11.9117 28.4728 20.0108 28.4728Z" fill="#4F79A4"/>
<path d="M96.0958 99.7507H41.0872V105.346H96.0958V99.7507Z" fill="#70DDFF"/>
<path d="M19.6716 383.208C9.35142 383.208 0.920837 385.554 0.920837 375.759V304.557C0.933608 299.839 2.91273 295.318 6.42594 291.981C9.93916 288.644 14.701 286.761 19.6716 286.745C24.6421 286.761 29.404 288.644 32.9172 291.981C36.4304 295.318 38.4095 299.839 38.4223 304.557V375.759C38.4223 385.554 29.9917 383.208 19.6716 383.208Z" fill="#70DDFF"/>

</symbol>
<symbol id="leaf" viewBox="0 0 24 23">
<path d="M23.3186 0.573922C23.3186 0.573922 -2.80418 -1.00249 0.24806 17.35C0.24806 17.35 -0.36376 20.5923 2.57162 22.0654C2.57162 22.0654 2.61972 20.6887 5.2595 21.1637C6.19712 21.3217 7.15015 21.3679 8.09864 21.3013C9.38092 21.2164 10.6002 20.7136 11.5702 19.8695C11.5702 19.8695 18.9259 16.8268 21.7856 4.79375C21.7856 4.79375 23.8961 2.17098 23.8136 1.49636L19.4002 3.38255C19.4002 3.38255 20.9057 6.56979 19.7233 9.22009C19.7233 9.22009 19.5789 3.49958 18.7334 3.63037C18.5615 3.63037 16.4373 4.73868 16.4373 4.73868C16.4373 4.73868 19.0358 10.294 17.0766 14.3279C17.0766 14.3279 17.8191 7.48536 15.6261 5.13795L12.5189 6.98283C12.5189 6.98283 15.5505 12.7171 13.4951 17.3982C13.4951 17.3982 14.0244 10.2183 11.8658 7.4234L9.05419 9.62624C9.05419 9.62624 11.9002 15.2779 10.1678 19.1604C10.1678 19.1604 9.93411 10.8034 8.44236 10.1701C8.44236 10.1701 5.98131 12.3454 5.60322 13.2403C5.60322 13.2403 7.55556 17.3706 6.34567 19.5115C6.34567 19.5115 5.60323 13.9425 4.97078 13.9149C4.97078 13.9149 2.51661 17.6047 2.26226 20.1104C2.38508 17.7741 3.11493 15.5104 4.37959 13.5432C2.96338 13.8118 1.65637 14.4889 0.619263 15.4913C0.619263 15.4913 1.00426 12.8823 4.98455 12.6552C4.98455 12.6552 7.04686 9.85341 7.55557 9.68131C7.55557 9.68131 3.59591 9.35089 1.19673 10.4179C1.19673 10.4179 3.30717 7.96034 8.27738 9.07553L11.0271 6.80385C11.0271 6.80385 5.80947 6.11546 3.60278 6.87957C3.60278 6.87957 6.14633 4.70426 11.7765 6.28756L14.8012 4.47709C14.8012 4.47709 10.3534 3.52023 7.70679 3.86442C7.70679 3.86442 10.5047 2.35685 15.688 3.98833L17.8534 3.01771C17.8534 3.01771 14.595 2.3775 13.6394 2.27425C12.6839 2.17099 12.6358 1.9094 12.6358 1.9094C14.6995 1.56563 16.8179 1.80399 18.754 2.59779C18.754 2.59779 23.4011 0.863046 23.3186 0.573922Z" fill="#6C63FF"/>

</symbol>
<symbol id="road1" viewBox="0 0 1168 1758">
<path d="M78.5 1C78.6667 41.6188 93.9999 129.615 154 156.648C229 190.44 282.5 190.952 358.5 189.928C419.3 189.109 737.667 186.159 882.5 186.5C921 186.591 988.047 200.227 1034 241.5C1088 290 1089.16 335.203 1091.5 375.5C1093.5 409.906 1091.5 586.186 1091.5 642C1091.5 769 1011.5 851 863 852L293 858.93C165 858.93 82 910.916 75.5 1042.5V1353C70 1462 155 1537.67 244.5 1537.67C351 1537.67 416 1539.37 450 1537.67C521 1537.67 585 1587 589 1669.5C589 1674.01 589 1696.23 589 1757.5" stroke="url(#paint0_linear)" stroke-width="150"/>
<path d="M78.5 1C78.6667 41.6188 93.9999 129.615 154 156.648C229 190.44 282.5 190.952 358.5 189.928C419.3 189.109 737.667 186.159 882.5 186.5C921 186.591 988.047 200.227 1034 241.5C1088 290 1089.16 335.203 1091.5 375.5C1093.5 409.906 1091.5 586.186 1091.5 642C1091.5 769 1011.5 851 863 852L293 858.93C165 858.93 82 910.916 75.5 1042.5V1353C70 1462 155 1537.67 244.5 1537.67C351 1537.67 416 1539.37 450 1537.67C521 1537.67 585 1587 589 1669.5C589 1674.01 589 1677.23 589 1738.5" stroke="url(#paint1_linear)" stroke-width="2" stroke-dasharray="10 15"/>
<circle cx="1094" cy="498" r="17" fill="#13F1FC" fill-opacity="0.1"/>
<g filter="url(#filter0_d)">
<circle cx="1093.5" cy="498.5" r="8.5" fill="#13F1FC"/>
</g>
<circle cx="75" cy="1186" r="17" fill="#13F1FC" fill-opacity="0.1"/>
<g filter="url(#filter1_d)">
<circle cx="75.5" cy="1186.5" r="8.5" fill="#13F1FC"/>
</g>
<defs>
<filter id="filter0_d" x="1075" y="484" width="37" height="37" filterUnits="userSpaceOnUse" color-interpolation-filters="sRGB">
<feFlood flood-opacity="0" result="BackgroundImageFix"/>
<feColorMatrix in="SourceAlpha" type="matrix" values="0 0 0 0 0 0 0 0 0 0 0 0 0 0 0 0 0 0 127 0"/>
<feOffset dy="4"/>
<feGaussianBlur stdDeviation="5"/>
<feColorMatrix type="matrix" values="0 0 0 0 0.0745098 0 0 0 0 0.945098 0 0 0 0 0.988235 0 0 0 0.7 0"/>
<feBlend mode="normal" in2="BackgroundImageFix" result="effect1_dropShadow"/>
<feBlend mode="normal" in="SourceGraphic" in2="effect1_dropShadow" result="shape"/>
</filter>
<filter id="filter1_d" x="57" y="1172" width="37" height="37" filterUnits="userSpaceOnUse" color-interpolation-filters="sRGB">
<feFlood flood-opacity="0" result="BackgroundImageFix"/>
<feColorMatrix in="SourceAlpha" type="matrix" values="0 0 0 0 0 0 0 0 0 0 0 0 0 0 0 0 0 0 127 0"/>
<feOffset dy="4"/>
<feGaussianBlur stdDeviation="5"/>
<feColorMatrix type="matrix" values="0 0 0 0 0.0745098 0 0 0 0 0.945098 0 0 0 0 0.988235 0 0 0 0.7 0"/>
<feBlend mode="normal" in2="BackgroundImageFix" result="effect1_dropShadow"/>
<feBlend mode="normal" in="SourceGraphic" in2="effect1_dropShadow" result="shape"/>
</filter>
<linearGradient id="paint0_linear" x1="586.052" y1="1" x2="586.052" y2="1707.5" gradientUnits="userSpaceOnUse">
<stop stop-color="white"/>
<stop offset="0.541436" stop-color="#E6E8EC" stop-opacity="0.1"/>
<stop offset="1" stop-color="white"/>
</linearGradient>
<linearGradient id="paint1_linear" x1="586.052" y1="1" x2="586.052" y2="1707.5" gradientUnits="userSpaceOnUse">
<stop stop-color="white"/>
<stop offset="0.209945" stop-color="#E6E8EC"/>
<stop offset="0.834254" stop-color="#E6E8EC"/>
<stop offset="1" stop-color="white"/>
</linearGradient>
</defs>

</symbol>
<symbol id="sprite">
<symbol id="android" viewBox="0 0 19 22">
<path d="M3.21869 8.10254V13.54C3.21869 13.915 3.09369 14.2275 2.84369 14.4775C2.59369 14.7275 2.28119 14.8525 1.90619 14.8525C1.53119 14.8525 1.20306 14.7275 0.921814 14.4775C0.640564 14.2275 0.499939 13.915 0.499939 13.54V8.10254C0.499939 7.75879 0.640564 7.46191 0.921814 7.21191C1.20306 6.96191 1.51556 6.83691 1.85931 6.83691C2.23431 6.83691 2.54681 6.96191 2.79681 7.21191C3.07806 7.46191 3.21869 7.75879 3.21869 8.10254ZM3.68744 15.4619C3.68744 15.8682 3.82806 16.2119 4.10931 16.4932C4.39056 16.7432 4.71869 16.8682 5.09369 16.8682H6.03119V19.7275C6.03119 20.29 6.24994 20.665 6.68744 20.8525C7.12494 21.0713 7.54681 21.0713 7.95306 20.8525C8.39056 20.6338 8.60931 20.2588 8.60931 19.7275V16.8682H10.3906V19.7275C10.3906 20.29 10.5937 20.665 10.9999 20.8525C11.4374 21.0713 11.8749 21.0713 12.3124 20.8525C12.7499 20.665 12.9687 20.29 12.9687 19.7275V16.8682H13.9062C14.2812 16.8682 14.6093 16.7432 14.8906 16.4932C15.1718 16.2119 15.3124 15.8682 15.3124 15.4619V7.07129H3.68744V15.4619ZM15.3124 6.60254H3.64056C3.64056 5.63379 3.90619 4.74316 4.43744 3.93066C4.99994 3.08691 5.73431 2.43066 6.64056 1.96191L5.74994 0.321289C5.68744 0.196289 5.70306 0.118164 5.79681 0.0869141C5.92181 0.0244141 5.99994 0.0400391 6.03119 0.133789L6.96869 1.77441C7.78119 1.43066 8.62494 1.25879 9.49994 1.25879C10.4062 1.25879 11.2499 1.43066 12.0312 1.77441L12.9687 0.133789C12.9999 0.0400391 13.0624 0.0244141 13.1562 0.0869141C13.2812 0.118164 13.3124 0.196289 13.2499 0.321289L12.3593 1.96191C13.2656 2.43066 13.9843 3.08691 14.5156 3.93066C15.0468 4.74316 15.3124 5.63379 15.3124 6.60254ZM7.34369 4.02441C7.34369 3.89941 7.29681 3.79004 7.20306 3.69629C7.10931 3.57129 6.98431 3.50879 6.82806 3.50879C6.70306 3.50879 6.59369 3.57129 6.49994 3.69629C6.40619 3.79004 6.35931 3.89941 6.35931 4.02441C6.35931 4.14941 6.40619 4.25879 6.49994 4.35254C6.59369 4.44629 6.70306 4.49316 6.82806 4.49316C6.98431 4.49316 7.10931 4.44629 7.20306 4.35254C7.29681 4.25879 7.34369 4.14941 7.34369 4.02441ZM12.6406 4.02441C12.6406 3.89941 12.5937 3.79004 12.4999 3.69629C12.4062 3.57129 12.2968 3.50879 12.1718 3.50879C12.0468 3.50879 11.9218 3.57129 11.7968 3.69629C11.7031 3.79004 11.6562 3.89941 11.6562 4.02441C11.6562 4.14941 11.7031 4.25879 11.7968 4.35254C11.9218 4.44629 12.0468 4.49316 12.1718 4.49316C12.2968 4.49316 12.4062 4.44629 12.4999 4.35254C12.5937 4.25879 12.6406 4.14941 12.6406 4.02441ZM17.0937 6.83691C16.7499 6.83691 16.4374 6.96191 16.1562 7.21191C15.9062 7.46191 15.7812 7.77441 15.7812 8.14941V13.54C15.7812 13.915 15.9062 14.2275 16.1562 14.4775C16.4374 14.7275 16.7499 14.8525 17.0937 14.8525C17.4687 14.8525 17.7968 14.7275 18.0781 14.4775C18.3593 14.2275 18.4999 13.915 18.4999 13.54V8.10254C18.4999 7.75879 18.3593 7.46191 18.0781 7.21191C17.7968 6.96191 17.4687 6.83691 17.0937 6.83691Z" fill="white"/>

</symbol>
<symbol id="apple" viewBox="0 0 18 22">
<path d="M14.7657 11.1494C14.7345 9.43066 15.5157 8.10254 17.1095 7.16504C16.2345 5.91504 14.9064 5.21191 13.1251 5.05566C12.6564 5.02441 12.1251 5.08691 11.5314 5.24316C11.1876 5.33691 10.7189 5.49316 10.1251 5.71191C9.53137 5.93066 9.14075 6.04004 8.95325 6.04004C8.76575 6.04004 8.34387 5.91504 7.68762 5.66504C6.65637 5.29004 5.89075 5.10254 5.39075 5.10254C4.4845 5.13379 3.6095 5.38379 2.76575 5.85254C1.95325 6.32129 1.297 7.00879 0.796997 7.91504C0.265747 8.88379 0.00012207 10.04 0.00012207 11.3838C0.00012207 12.6025 0.218872 13.8682 0.656372 15.1807C0.906372 15.8682 1.26575 16.6338 1.7345 17.4775C2.32825 18.5088 2.922 19.3213 3.51575 19.915C4.297 20.6963 5.03137 21.0713 5.71887 21.04C6.06262 21.04 6.56262 20.915 7.21887 20.665C8.03137 20.3525 8.70325 20.1963 9.2345 20.1963C9.76575 20.1963 10.4064 20.3369 11.1564 20.6182C11.8439 20.8994 12.4064 21.04 12.8439 21.04C13.8439 21.0088 14.8595 20.29 15.8907 18.8838C16.672 17.79 17.2501 16.6494 17.6251 15.4619C16.3751 14.8682 15.5314 13.9932 15.0939 12.8369C14.8439 12.2744 14.7345 11.7119 14.7657 11.1494ZM12.0939 3.41504C12.9376 2.41504 13.3126 1.29004 13.2189 0.0400391C12.6564 0.0712891 12.0782 0.243164 11.4845 0.555664C10.8907 0.868164 10.4064 1.24316 10.0314 1.68066C9.12512 2.68066 8.7345 3.80566 8.8595 5.05566C10.0157 5.14941 11.0939 4.61816 12.0939 3.46191V3.41504Z" fill="white"/>

</symbol>
<symbol id="fb" viewBox="0 0 8 15">
<path d="M2.10547 14.29V8.02832H0V5.54004H2.10547V3.57129C2.10547 2.53223 2.39714 1.73014 2.98047 1.16504C3.5638 0.581706 4.33854 0.290039 5.30469 0.290039C6.08854 0.290039 6.72656 0.326497 7.21875 0.399414V2.61426H5.90625C5.41406 2.61426 5.07682 2.72363 4.89453 2.94238C4.7487 3.12467 4.67578 3.41634 4.67578 3.81738V5.54004H7L6.67188 8.02832H4.67578V14.29H2.10547Z" fill="#13F1FC"/>

</symbol>
<symbol id="gpl" viewBox="0 0 18 11">
<path d="M10.5547 4.52441C10.6094 4.83431 10.6367 5.12598 10.6367 5.39941C10.6367 6.40202 10.4271 7.29525 10.0078 8.0791C9.58854 8.84473 8.99609 9.44629 8.23047 9.88379C7.46484 10.3213 6.58984 10.54 5.60547 10.54C4.65755 10.54 3.77344 10.3031 2.95312 9.8291C2.15104 9.35514 1.51302 8.71712 1.03906 7.91504C0.583333 7.11296 0.355469 6.23796 0.355469 5.29004C0.355469 4.34212 0.583333 3.46712 1.03906 2.66504C1.51302 1.86296 2.15104 1.22493 2.95312 0.750977C3.77344 0.277018 4.65755 0.0400391 5.60547 0.0400391C6.97266 0.0400391 8.13932 0.495768 9.10547 1.40723L7.68359 2.77441C7.13672 2.24577 6.44401 1.98145 5.60547 1.98145C5.02214 1.98145 4.47526 2.12728 3.96484 2.41895C3.47266 2.71061 3.08073 3.11165 2.78906 3.62207C2.4974 4.13249 2.35156 4.68848 2.35156 5.29004C2.35156 5.8916 2.4974 6.44759 2.78906 6.95801C3.08073 7.46842 3.47266 7.86947 3.96484 8.16113C4.47526 8.4528 5.02214 8.59863 5.60547 8.59863C6.24349 8.59863 6.79948 8.46191 7.27344 8.18848C7.65625 7.96973 7.96615 7.65983 8.20312 7.25879C8.40365 6.94889 8.53125 6.64811 8.58594 6.35645H5.60547V4.52441H10.5547ZM15.6133 4.71582V3.18457H14.082V4.71582H12.5781V6.24707H14.082V7.77832H15.6133V6.24707H17.1445V4.71582H15.6133Z" fill="#BDD3DF"/>

</symbol>
<symbol id="icon-map" viewBox="0 0 19 26">
<ellipse cx="9.5" cy="22.8269" rx="9.5" ry="2.55769" fill="#F2F2F2"/>
<path clip-rule="evenodd" d="M9.13463 18.0769C9.13463 18.0769 16.0769 12.2308 16.0769 7.48076C16.0769 3.64663 12.9688 0.538452 9.13463 0.538452C5.3005 0.538452 2.19232 3.64663 2.19232 7.48076C2.19232 12.5961 9.13463 18.0769 9.13463 18.0769ZM9.1346 10.0385C10.9508 10.0385 12.4231 8.56616 12.4231 6.74999C12.4231 4.93383 10.9508 3.46153 9.1346 3.46153C7.31843 3.46153 5.84614 4.93383 5.84614 6.74999C5.84614 8.56616 7.31843 10.0385 9.1346 10.0385Z"/>

</symbol>
<symbol id="icon-search" viewBox="0 0 32 31">
<path clip-rule="evenodd" d="M19.5925 11.2962C19.5925 15.8781 15.8781 19.5925 11.2962 19.5925C6.71435 19.5925 3 15.8781 3 11.2962C3 6.71435 6.71435 3 11.2962 3C15.8781 3 19.5925 6.71435 19.5925 11.2962ZM18.4865 20.009C16.5332 21.6228 14.0279 22.5925 11.2962 22.5925C5.0575 22.5925 0 17.535 0 11.2962C0 5.0575 5.0575 0 11.2962 0C17.535 0 22.5925 5.0575 22.5925 11.2962C22.5925 13.7211 21.8285 15.9674 20.528 17.8078L31.0496 28.3294L28.9283 30.4507L18.4865 20.009Z"/>

</symbol>
<symbol id="lamp" viewBox="0 0 97 384">
<path d="M72.5161 84.8359H66.6211V105.346H72.5161V84.8359Z" fill="#70DDFF"/>
<path d="M72.5161 79.241H17.5074V84.8359H72.5161V79.241Z" fill="#70DDFF"/>
<path d="M68.1392 135.283C78.3077 135.283 86.5508 127.459 86.5508 117.808C86.5508 108.157 78.3077 100.333 68.1392 100.333C57.9708 100.333 49.7277 108.157 49.7277 117.808C49.7277 127.459 57.9708 135.283 68.1392 135.283Z" fill="#FFEB3B"/>
<path d="M23.4024 25.1616H17.5074V303.009H23.4024V25.1616Z" fill="#70DDFF"/>
<path d="M20.0108 28.4728C28.1099 28.4728 34.6755 22.2413 34.6755 14.5544C34.6755 6.86747 28.1099 0.635986 20.0108 0.635986C11.9117 0.635986 5.34613 6.86747 5.34613 14.5544C5.34613 22.2413 11.9117 28.4728 20.0108 28.4728Z" fill="#4F79A4"/>
<path d="M96.0958 99.7507H41.0872V105.346H96.0958V99.7507Z" fill="#70DDFF"/>
<path d="M19.6716 383.208C9.35142 383.208 0.920837 385.554 0.920837 375.759V304.557C0.933608 299.839 2.91273 295.318 6.42594 291.981C9.93916 288.644 14.701 286.761 19.6716 286.745C24.6421 286.761 29.404 288.644 32.9172 291.981C36.4304 295.318 38.4095 299.839 38.4223 304.557V375.759C38.4223 385.554 29.9917 383.208 19.6716 383.208Z" fill="#70DDFF"/>

</symbol>
<symbol id="leaf" viewBox="0 0 24 23">
<path d="M23.3186 0.573922C23.3186 0.573922 -2.80418 -1.00249 0.24806 17.35C0.24806 17.35 -0.36376 20.5923 2.57162 22.0654C2.57162 22.0654 2.61972 20.6887 5.2595 21.1637C6.19712 21.3217 7.15015 21.3679 8.09864 21.3013C9.38092 21.2164 10.6002 20.7136 11.5702 19.8695C11.5702 19.8695 18.9259 16.8268 21.7856 4.79375C21.7856 4.79375 23.8961 2.17098 23.8136 1.49636L19.4002 3.38255C19.4002 3.38255 20.9057 6.56979 19.7233 9.22009C19.7233 9.22009 19.5789 3.49958 18.7334 3.63037C18.5615 3.63037 16.4373 4.73868 16.4373 4.73868C16.4373 4.73868 19.0358 10.294 17.0766 14.3279C17.0766 14.3279 17.8191 7.48536 15.6261 5.13795L12.5189 6.98283C12.5189 6.98283 15.5505 12.7171 13.4951 17.3982C13.4951 17.3982 14.0244 10.2183 11.8658 7.4234L9.05419 9.62624C9.05419 9.62624 11.9002 15.2779 10.1678 19.1604C10.1678 19.1604 9.93411 10.8034 8.44236 10.1701C8.44236 10.1701 5.98131 12.3454 5.60322 13.2403C5.60322 13.2403 7.55556 17.3706 6.34567 19.5115C6.34567 19.5115 5.60323 13.9425 4.97078 13.9149C4.97078 13.9149 2.51661 17.6047 2.26226 20.1104C2.38508 17.7741 3.11493 15.5104 4.37959 13.5432C2.96338 13.8118 1.65637 14.4889 0.619263 15.4913C0.619263 15.4913 1.00426 12.8823 4.98455 12.6552C4.98455 12.6552 7.04686 9.85341 7.55557 9.68131C7.55557 9.68131 3.59591 9.35089 1.19673 10.4179C1.19673 10.4179 3.30717 7.96034 8.27738 9.07553L11.0271 6.80385C11.0271 6.80385 5.80947 6.11546 3.60278 6.87957C3.60278 6.87957 6.14633 4.70426 11.7765 6.28756L14.8012 4.47709C14.8012 4.47709 10.3534 3.52023 7.70679 3.86442C7.70679 3.86442 10.5047 2.35685 15.688 3.98833L17.8534 3.01771C17.8534 3.01771 14.595 2.3775 13.6394 2.27425C12.6839 2.17099 12.6358 1.9094 12.6358 1.9094C14.6995 1.56563 16.8179 1.80399 18.754 2.59779C18.754 2.59779 23.4011 0.863046 23.3186 0.573922Z" fill="#6C63FF"/>

</symbol>
<symbol id="road1" viewBox="0 0 1168 1758">
<path d="M78.5 1C78.6667 41.6188 93.9999 129.615 154 156.648C229 190.44 282.5 190.952 358.5 189.928C419.3 189.109 737.667 186.159 882.5 186.5C921 186.591 988.047 200.227 1034 241.5C1088 290 1089.16 335.203 1091.5 375.5C1093.5 409.906 1091.5 586.186 1091.5 642C1091.5 769 1011.5 851 863 852L293 858.93C165 858.93 82 910.916 75.5 1042.5V1353C70 1462 155 1537.67 244.5 1537.67C351 1537.67 416 1539.37 450 1537.67C521 1537.67 585 1587 589 1669.5C589 1674.01 589 1696.23 589 1757.5" stroke="url(#paint0_linear)" stroke-width="150"/>
<path d="M78.5 1C78.6667 41.6188 93.9999 129.615 154 156.648C229 190.44 282.5 190.952 358.5 189.928C419.3 189.109 737.667 186.159 882.5 186.5C921 186.591 988.047 200.227 1034 241.5C1088 290 1089.16 335.203 1091.5 375.5C1093.5 409.906 1091.5 586.186 1091.5 642C1091.5 769 1011.5 851 863 852L293 858.93C165 858.93 82 910.916 75.5 1042.5V1353C70 1462 155 1537.67 244.5 1537.67C351 1537.67 416 1539.37 450 1537.67C521 1537.67 585 1587 589 1669.5C589 1674.01 589 1677.23 589 1738.5" stroke="url(#paint1_linear)" stroke-width="2" stroke-dasharray="10 15"/>
<circle cx="1094" cy="498" r="17" fill="#13F1FC" fill-opacity="0.1"/>
<g filter="url(#filter0_d)">
<circle cx="1093.5" cy="498.5" r="8.5" fill="#13F1FC"/>
</g>
<circle cx="75" cy="1186" r="17" fill="#13F1FC" fill-opacity="0.1"/>
<g filter="url(#filter1_d)">
<circle cx="75.5" cy="1186.5" r="8.5" fill="#13F1FC"/>
</g>
<defs>
<filter id="filter0_d" x="1075" y="484" width="37" height="37" filterUnits="userSpaceOnUse" color-interpolation-filters="sRGB">
<feFlood flood-opacity="0" result="BackgroundImageFix"/>
<feColorMatrix in="SourceAlpha" type="matrix" values="0 0 0 0 0 0 0 0 0 0 0 0 0 0 0 0 0 0 127 0"/>
<feOffset dy="4"/>
<feGaussianBlur stdDeviation="5"/>
<feColorMatrix type="matrix" values="0 0 0 0 0.0745098 0 0 0 0 0.945098 0 0 0 0 0.988235 0 0 0 0.7 0"/>
<feBlend mode="normal" in2="BackgroundImageFix" result="effect1_dropShadow"/>
<feBlend mode="normal" in="SourceGraphic" in2="effect1_dropShadow" result="shape"/>
</filter>
<filter id="filter1_d" x="57" y="1172" width="37" height="37" filterUnits="userSpaceOnUse" color-interpolation-filters="sRGB">
<feFlood flood-opacity="0" result="BackgroundImageFix"/>
<feColorMatrix in="SourceAlpha" type="matrix" values="0 0 0 0 0 0 0 0 0 0 0 0 0 0 0 0 0 0 127 0"/>
<feOffset dy="4"/>
<feGaussianBlur stdDeviation="5"/>
<feColorMatrix type="matrix" values="0 0 0 0 0.0745098 0 0 0 0 0.945098 0 0 0 0 0.988235 0 0 0 0.7 0"/>
<feBlend mode="normal" in2="BackgroundImageFix" result="effect1_dropShadow"/>
<feBlend mode="normal" in="SourceGraphic" in2="effect1_dropShadow" result="shape"/>
</filter>
<linearGradient id="paint0_linear" x1="586.052" y1="1" x2="586.052" y2="1707.5" gradientUnits="userSpaceOnUse">
<stop stop-color="white"/>
<stop offset="0.541436" stop-color="#E6E8EC" stop-opacity="0.1"/>
<stop offset="1" stop-color="white"/>
</linearGradient>
<linearGradient id="paint1_linear" x1="586.052" y1="1" x2="586.052" y2="1707.5" gradientUnits="userSpaceOnUse">
<stop stop-color="white"/>
<stop offset="0.209945" stop-color="#E6E8EC"/>
<stop offset="0.834254" stop-color="#E6E8EC"/>
<stop offset="1" stop-color="white"/>
</linearGradient>
</defs>

</symbol>
<symbol id="tree2" viewBox="0 0 260 456">
<path d="M230.051 161.623C236.696 154.407 241.632 145.922 244.526 136.74C247.42 127.559 248.204 117.895 246.826 108.401C245.448 98.9071 241.94 89.8043 236.539 81.7074C231.137 73.6104 223.968 66.7077 215.515 61.4655C219.886 55.0385 222.203 47.5477 222.186 39.8981C222.186 18.2694 204.129 0.733398 181.809 0.733398C172.997 0.79057 164.445 3.57383 157.45 8.66101C150.455 13.7482 145.399 20.8618 143.048 28.9228C137.796 20.375 130.282 13.2776 121.252 8.33321C112.221 3.38886 101.986 0.769125 91.5603 0.733398C58.3549 0.733398 31.432 26.7921 31.432 59.1049C31.4268 65.9751 32.6725 72.7945 35.1143 79.262C33.8869 79.1701 32.6756 79.0781 31.432 79.0781C4.76749 79.0781 -16.8419 100.048 -16.8419 125.922C-16.8419 127.455 -16.745 129.095 -16.5835 130.659C-27.4331 135.277 -36.6356 142.787 -43.0724 152.276C-49.5092 161.765 -52.903 172.824 -52.8413 184.11C-52.8413 216.3 -25.9992 242.359 7.09317 242.359C10.5751 242.357 14.05 242.064 17.4779 241.485C17.3003 243.416 17.1872 245.378 17.1872 247.356C17.1872 283.409 47.3079 312.641 84.4379 312.641C98.1985 312.634 111.612 308.539 122.795 300.929C131.786 308.423 143.341 312.558 155.306 312.564C183.069 312.564 205.551 290.736 205.551 263.788C205.551 262.623 205.454 261.474 205.373 260.339H205.551C235.267 260.339 259.364 236.948 259.364 208.115C259.409 198.565 256.702 189.185 251.535 180.991C246.369 172.796 238.939 166.098 230.051 161.623Z" fill="url(#paint0_linear)"/>
<path d="M120.647 92.2915H112.782V455.917H120.647V92.2915Z" fill="#DCE7FF"/>
<path d="M176.558 133.332L112.068 199.431L117.839 204.503L182.329 138.404L176.558 133.332Z" fill="#DCE7FF"/>
<path d="M50.4289 208.688L45.7394 214.681L112.605 261.813L117.294 255.82L50.4289 208.688Z" fill="#DCE7FF"/>
<defs>
<linearGradient id="paint0_linear" x1="20.5" y1="34.54" x2="124.5" y2="304.54" gradientUnits="userSpaceOnUse">
<stop stop-color="#0470DC"/>
<stop offset="1" stop-color="#70DDFF"/>
</linearGradient>
</defs>

</symbol>
<symbol id="tree3" viewBox="0 0 283 366">
<path d="M27.406 137.794C17.3054 127.595 11.675 114.129 11.6593 100.132C11.7155 90.4754 14.4084 80.9977 19.4752 72.6237C24.542 64.2497 31.8095 57.2654 40.5687 52.3525C36.6396 46.9428 34.5334 40.5285 34.5284 33.9581C34.5284 15.5637 50.8404 0.541685 70.9801 0.541685C78.7532 0.469603 86.3455 2.76735 92.6398 7.09682C98.9342 11.4263 103.598 17.5589 105.946 24.5923C110.913 17.1754 117.785 11.0776 125.915 6.87088C134.045 2.66413 143.167 0.486327 152.427 0.541685C182.419 0.541685 206.741 22.8295 206.741 50.3291C206.755 56.2046 205.639 62.0331 203.446 67.5278C204.545 67.4512 205.643 67.3746 206.773 67.3746C230.838 67.3746 250.38 85.2631 250.38 107.336C250.378 108.688 250.302 110.039 250.154 111.383C259.745 115.071 267.968 121.378 273.781 129.504C279.594 137.63 282.736 147.21 282.81 157.032C282.81 184.455 258.584 206.666 228.674 206.666C225.534 206.665 222.401 206.414 219.306 205.915C219.468 207.57 219.565 209.241 219.565 210.927C219.565 241.692 192.383 266.632 158.839 266.632C146.542 266.638 134.521 263.17 124.309 256.668C116.034 263.115 105.653 266.627 94.9474 266.601C69.8818 266.601 49.5645 247.961 49.5645 224.984C49.5645 223.987 49.6614 223.006 49.726 222.041H49.5645C22.7385 222.041 0.983826 202.113 0.983826 177.48C1.04735 169.184 3.55569 161.07 8.22513 154.057C12.8946 147.043 19.5387 141.41 27.406 137.794V137.794Z" fill="url(#paint0_linear)"/>
<path d="M135.243 79.5303H125.423V389.077H135.243V79.5303Z" fill="#DCE7FF"/>
<path d="M76.5978 112.608L69.5856 119.132L127.823 175.517L134.835 168.992L76.5978 112.608Z" fill="#DCE7FF"/>
<path d="M188.896 176.663L128.521 216.877L134.161 224.506L194.537 184.292L188.896 176.663Z" fill="#DCE7FF"/>
<defs>
<linearGradient id="paint0_linear" x1="98" y1="76.5693" x2="215" y2="347.569" gradientUnits="userSpaceOnUse">
<stop stop-color="#0470DC"/>
<stop offset="1" stop-color="#6BD7FD"/>
<stop offset="1" stop-color="#70DDFF"/>
</linearGradient>
</defs>

</symbol>
<symbol id="tw" viewBox="0 0 14 12">
<path d="M12.5508 3.44629C12.569 3.51921 12.5781 3.6377 12.5781 3.80176C12.5781 5.11426 12.2591 6.38118 11.6211 7.60254C10.9648 8.89681 10.0443 9.92676 8.85938 10.6924C7.5651 11.5492 6.07943 11.9775 4.40234 11.9775C2.79818 11.9775 1.33073 11.5492 0 10.6924C0.200521 10.7106 0.428385 10.7197 0.683594 10.7197C2.01432 10.7197 3.20833 10.3096 4.26562 9.48926C3.6276 9.48926 3.0625 9.30697 2.57031 8.94238C2.09635 8.55957 1.76823 8.08561 1.58594 7.52051C1.76823 7.53874 1.94141 7.54785 2.10547 7.54785C2.36068 7.54785 2.61589 7.52051 2.87109 7.46582C2.21484 7.31999 1.66797 6.98275 1.23047 6.4541C0.792969 5.92546 0.574219 5.32389 0.574219 4.64941V4.59473C0.97526 4.83171 1.40365 4.95931 1.85938 4.97754C1.47656 4.7041 1.16667 4.35775 0.929688 3.93848C0.692708 3.51921 0.574219 3.06348 0.574219 2.57129C0.574219 2.06087 0.710938 1.5778 0.984375 1.12207C1.69531 2.0153 2.5612 2.72624 3.58203 3.25488C4.62109 3.78353 5.72396 4.0752 6.89062 4.12988C6.85417 3.91113 6.83594 3.69238 6.83594 3.47363C6.83594 2.96322 6.96354 2.48926 7.21875 2.05176C7.47396 1.59603 7.82031 1.24056 8.25781 0.985352C8.69531 0.730143 9.16927 0.602539 9.67969 0.602539C10.099 0.602539 10.4818 0.68457 10.8281 0.848633C11.1927 1.0127 11.5117 1.23145 11.7852 1.50488C12.4414 1.37728 13.0521 1.14941 13.6172 0.821289C13.3984 1.49577 12.9792 2.02441 12.3594 2.40723C12.9062 2.33431 13.4531 2.17936 14 1.94238C13.599 2.52572 13.1159 3.02702 12.5508 3.44629Z" fill="#BDD3DF"/>

</symbol>
<symbol id="wave-hero" viewBox="0 0 1440 913">
<path opacity="0.2" d="M459.5 829.5C168.997 848.31 34.5 770 -1 743V630.5H1440V845C1203.5 1021 895.057 795.465 662.5 814.5C522 826 529 825 459.5 829.5Z" fill="url(#paint0_linear)"/>
<path opacity="0.2" d="M1440 2H0V740C423 704 397.5 928 814.5 851C1039.82 809.394 1226.5 922 1440 843V2Z" fill="url(#paint1_linear)"/>
<path d="M0 0H1440V845C1116 690 1062 925.5 629 800C408.927 736.215 294 676.5 0 740.5V0Z" fill="url(#paint2_linear)"/>
<defs>
<linearGradient id="paint0_linear" x1="41.4997" y1="553.001" x2="1679.5" y2="996.501" gradientUnits="userSpaceOnUse">
<stop stop-color="#0470DC"/>
<stop offset="1" stop-color="#13F1FC"/>
</linearGradient>
<linearGradient id="paint1_linear" x1="81.5" y1="763" x2="1440" y2="-288.5" gradientUnits="userSpaceOnUse">
<stop stop-color="#0470DC"/>
<stop offset="1" stop-color="#13F1FC"/>
</linearGradient>
<linearGradient id="paint2_linear" x1="0.000103962" y1="-63.0002" x2="1858.5" y2="1111" gradientUnits="userSpaceOnUse">
<stop stop-color="#0470DC"/>
<stop offset="1" stop-color="#13F1FC"/>
</linearGradient>
</defs>

</symbol>
<symbol id="wave" viewBox="0 0 1440 1219">
<path d="M-59.4282 304.172C-137.837 387.569 -66.8006 651.831 -38.4812 720.554C25.0214 875.468 -80.8518 857.441 -83.8133 998.058C-86.7748 1138.68 200.391 1216.62 465.751 1137.76C785.764 1042.66 665.637 993.38 1099.66 1008.76C1533.69 1024.13 1579.15 639.195 1551.7 593.768C1528.43 555.273 1579.04 388.877 1510.5 361.54C1478.2 348.658 1478.5 239.04 1367.43 262.227C1245.97 287.581 1142.36 108.289 1017.74 198.281C893.11 288.272 886.692 80.2029 708.708 139.749C530.724 199.294 325.817 131.617 223.5 185.54C27.443 288.866 37.7605 200.801 -59.4282 304.172Z" fill="url(#paint0_linear)"/>
<defs>
<linearGradient id="paint0_linear" x1="-101.88" y1="345.598" x2="1840.42" y2="852.308" gradientUnits="userSpaceOnUse">
<stop stop-color="#0470DC"/>
<stop offset="1" stop-color="#70DDFF"/>
</linearGradient>
</defs>

</symbol>
</symbol>
<symbol id="tree2" viewBox="0 0 260 456">
<path d="M230.051 161.623C236.696 154.407 241.632 145.922 244.526 136.74C247.42 127.559 248.204 117.895 246.826 108.401C245.448 98.9071 241.94 89.8043 236.539 81.7074C231.137 73.6104 223.968 66.7077 215.515 61.4655C219.886 55.0385 222.203 47.5477 222.186 39.8981C222.186 18.2694 204.129 0.733398 181.809 0.733398C172.997 0.79057 164.445 3.57383 157.45 8.66101C150.455 13.7482 145.399 20.8618 143.048 28.9228C137.796 20.375 130.282 13.2776 121.252 8.33321C112.221 3.38886 101.986 0.769125 91.5603 0.733398C58.3549 0.733398 31.432 26.7921 31.432 59.1049C31.4268 65.9751 32.6725 72.7945 35.1143 79.262C33.8869 79.1701 32.6756 79.0781 31.432 79.0781C4.76749 79.0781 -16.8419 100.048 -16.8419 125.922C-16.8419 127.455 -16.745 129.095 -16.5835 130.659C-27.4331 135.277 -36.6356 142.787 -43.0724 152.276C-49.5092 161.765 -52.903 172.824 -52.8413 184.11C-52.8413 216.3 -25.9992 242.359 7.09317 242.359C10.5751 242.357 14.05 242.064 17.4779 241.485C17.3003 243.416 17.1872 245.378 17.1872 247.356C17.1872 283.409 47.3079 312.641 84.4379 312.641C98.1985 312.634 111.612 308.539 122.795 300.929C131.786 308.423 143.341 312.558 155.306 312.564C183.069 312.564 205.551 290.736 205.551 263.788C205.551 262.623 205.454 261.474 205.373 260.339H205.551C235.267 260.339 259.364 236.948 259.364 208.115C259.409 198.565 256.702 189.185 251.535 180.991C246.369 172.796 238.939 166.098 230.051 161.623Z" fill="url(#paint0_linear)"/>
<path d="M120.647 92.2915H112.782V455.917H120.647V92.2915Z" fill="#DCE7FF"/>
<path d="M176.558 133.332L112.068 199.431L117.839 204.503L182.329 138.404L176.558 133.332Z" fill="#DCE7FF"/>
<path d="M50.4289 208.688L45.7394 214.681L112.605 261.813L117.294 255.82L50.4289 208.688Z" fill="#DCE7FF"/>
<defs>
<linearGradient id="paint0_linear" x1="20.5" y1="34.54" x2="124.5" y2="304.54" gradientUnits="userSpaceOnUse">
<stop stop-color="#0470DC"/>
<stop offset="1" stop-color="#70DDFF"/>
</linearGradient>
</defs>

</symbol>
<symbol id="tree3" viewBox="0 0 283 366">
<path d="M27.406 137.794C17.3054 127.595 11.675 114.129 11.6593 100.132C11.7155 90.4754 14.4084 80.9977 19.4752 72.6237C24.542 64.2497 31.8095 57.2654 40.5687 52.3525C36.6396 46.9428 34.5334 40.5285 34.5284 33.9581C34.5284 15.5637 50.8404 0.541685 70.9801 0.541685C78.7532 0.469603 86.3455 2.76735 92.6398 7.09682C98.9342 11.4263 103.598 17.5589 105.946 24.5923C110.913 17.1754 117.785 11.0776 125.915 6.87088C134.045 2.66413 143.167 0.486327 152.427 0.541685C182.419 0.541685 206.741 22.8295 206.741 50.3291C206.755 56.2046 205.639 62.0331 203.446 67.5278C204.545 67.4512 205.643 67.3746 206.773 67.3746C230.838 67.3746 250.38 85.2631 250.38 107.336C250.378 108.688 250.302 110.039 250.154 111.383C259.745 115.071 267.968 121.378 273.781 129.504C279.594 137.63 282.736 147.21 282.81 157.032C282.81 184.455 258.584 206.666 228.674 206.666C225.534 206.665 222.401 206.414 219.306 205.915C219.468 207.57 219.565 209.241 219.565 210.927C219.565 241.692 192.383 266.632 158.839 266.632C146.542 266.638 134.521 263.17 124.309 256.668C116.034 263.115 105.653 266.627 94.9474 266.601C69.8818 266.601 49.5645 247.961 49.5645 224.984C49.5645 223.987 49.6614 223.006 49.726 222.041H49.5645C22.7385 222.041 0.983826 202.113 0.983826 177.48C1.04735 169.184 3.55569 161.07 8.22513 154.057C12.8946 147.043 19.5387 141.41 27.406 137.794V137.794Z" fill="url(#paint0_linear)"/>
<path d="M135.243 79.5303H125.423V389.077H135.243V79.5303Z" fill="#DCE7FF"/>
<path d="M76.5978 112.608L69.5856 119.132L127.823 175.517L134.835 168.992L76.5978 112.608Z" fill="#DCE7FF"/>
<path d="M188.896 176.663L128.521 216.877L134.161 224.506L194.537 184.292L188.896 176.663Z" fill="#DCE7FF"/>
<defs>
<linearGradient id="paint0_linear" x1="98" y1="76.5693" x2="215" y2="347.569" gradientUnits="userSpaceOnUse">
<stop stop-color="#0470DC"/>
<stop offset="1" stop-color="#6BD7FD"/>
<stop offset="1" stop-color="#70DDFF"/>
</linearGradient>
</defs>

</symbol>
<symbol id="tw" viewBox="0 0 14 12">
<path d="M12.5508 3.44629C12.569 3.51921 12.5781 3.6377 12.5781 3.80176C12.5781 5.11426 12.2591 6.38118 11.6211 7.60254C10.9648 8.89681 10.0443 9.92676 8.85938 10.6924C7.5651 11.5492 6.07943 11.9775 4.40234 11.9775C2.79818 11.9775 1.33073 11.5492 0 10.6924C0.200521 10.7106 0.428385 10.7197 0.683594 10.7197C2.01432 10.7197 3.20833 10.3096 4.26562 9.48926C3.6276 9.48926 3.0625 9.30697 2.57031 8.94238C2.09635 8.55957 1.76823 8.08561 1.58594 7.52051C1.76823 7.53874 1.94141 7.54785 2.10547 7.54785C2.36068 7.54785 2.61589 7.52051 2.87109 7.46582C2.21484 7.31999 1.66797 6.98275 1.23047 6.4541C0.792969 5.92546 0.574219 5.32389 0.574219 4.64941V4.59473C0.97526 4.83171 1.40365 4.95931 1.85938 4.97754C1.47656 4.7041 1.16667 4.35775 0.929688 3.93848C0.692708 3.51921 0.574219 3.06348 0.574219 2.57129C0.574219 2.06087 0.710938 1.5778 0.984375 1.12207C1.69531 2.0153 2.5612 2.72624 3.58203 3.25488C4.62109 3.78353 5.72396 4.0752 6.89062 4.12988C6.85417 3.91113 6.83594 3.69238 6.83594 3.47363C6.83594 2.96322 6.96354 2.48926 7.21875 2.05176C7.47396 1.59603 7.82031 1.24056 8.25781 0.985352C8.69531 0.730143 9.16927 0.602539 9.67969 0.602539C10.099 0.602539 10.4818 0.68457 10.8281 0.848633C11.1927 1.0127 11.5117 1.23145 11.7852 1.50488C12.4414 1.37728 13.0521 1.14941 13.6172 0.821289C13.3984 1.49577 12.9792 2.02441 12.3594 2.40723C12.9062 2.33431 13.4531 2.17936 14 1.94238C13.599 2.52572 13.1159 3.02702 12.5508 3.44629Z" fill="#BDD3DF"/>

</symbol>
<symbol id="wave-hero" viewBox="0 0 1440 913">
<path opacity="0.2" d="M459.5 829.5C168.997 848.31 34.5 770 -1 743V630.5H1440V845C1203.5 1021 895.057 795.465 662.5 814.5C522 826 529 825 459.5 829.5Z" fill="url(#paint0_linear)"/>
<path opacity="0.2" d="M1440 2H0V740C423 704 397.5 928 814.5 851C1039.82 809.394 1226.5 922 1440 843V2Z" fill="url(#paint1_linear)"/>
<path d="M0 0H1440V845C1116 690 1062 925.5 629 800C408.927 736.215 294 676.5 0 740.5V0Z" fill="url(#paint2_linear)"/>
<defs>
<linearGradient id="paint0_linear" x1="41.4997" y1="553.001" x2="1679.5" y2="996.501" gradientUnits="userSpaceOnUse">
<stop stop-color="#0470DC"/>
<stop offset="1" stop-color="#13F1FC"/>
</linearGradient>
<linearGradient id="paint1_linear" x1="81.5" y1="763" x2="1440" y2="-288.5" gradientUnits="userSpaceOnUse">
<stop stop-color="#0470DC"/>
<stop offset="1" stop-color="#13F1FC"/>
</linearGradient>
<linearGradient id="paint2_linear" x1="0.000103962" y1="-63.0002" x2="1858.5" y2="1111" gradientUnits="userSpaceOnUse">
<stop stop-color="#0470DC"/>
<stop offset="1" stop-color="#13F1FC"/>
</linearGradient>
</defs>

</symbol>
<symbol id="wave" viewBox="0 0 1440 1219">
<path d="M-59.4282 304.172C-137.837 387.569 -66.8006 651.831 -38.4812 720.554C25.0214 875.468 -80.8518 857.441 -83.8133 998.058C-86.7748 1138.68 200.391 1216.62 465.751 1137.76C785.764 1042.66 665.637 993.38 1099.66 1008.76C1533.69 1024.13 1579.15 639.195 1551.7 593.768C1528.43 555.273 1579.04 388.877 1510.5 361.54C1478.2 348.658 1478.5 239.04 1367.43 262.227C1245.97 287.581 1142.36 108.289 1017.74 198.281C893.11 288.272 886.692 80.2029 708.708 139.749C530.724 199.294 325.817 131.617 223.5 185.54C27.443 288.866 37.7605 200.801 -59.4282 304.172Z" fill="url(#paint0_linear)"/>
<defs>
<linearGradient id="paint0_linear" x1="-101.88" y1="345.598" x2="1840.42" y2="852.308" gradientUnits="userSpaceOnUse">
<stop stop-color="#0470DC"/>
<stop offset="1" stop-color="#70DDFF"/>
</linearGradient>
</defs>

</symbol>
</symbol>
<symbol id="tree2" viewBox="0 0 260 456">
<path d="M230.051 161.623C236.696 154.407 241.632 145.922 244.526 136.74C247.42 127.559 248.204 117.895 246.826 108.401C245.448 98.9071 241.94 89.8043 236.539 81.7074C231.137 73.6104 223.968 66.7077 215.515 61.4655C219.886 55.0385 222.203 47.5477 222.186 39.8981C222.186 18.2694 204.129 0.733398 181.809 0.733398C172.997 0.79057 164.445 3.57383 157.45 8.66101C150.455 13.7482 145.399 20.8618 143.048 28.9228C137.796 20.375 130.282 13.2776 121.252 8.33321C112.221 3.38886 101.986 0.769125 91.5603 0.733398C58.3549 0.733398 31.432 26.7921 31.432 59.1049C31.4268 65.9751 32.6725 72.7945 35.1143 79.262C33.8869 79.1701 32.6756 79.0781 31.432 79.0781C4.76749 79.0781 -16.8419 100.048 -16.8419 125.922C-16.8419 127.455 -16.745 129.095 -16.5835 130.659C-27.4331 135.277 -36.6356 142.787 -43.0724 152.276C-49.5092 161.765 -52.903 172.824 -52.8413 184.11C-52.8413 216.3 -25.9992 242.359 7.09317 242.359C10.5751 242.357 14.05 242.064 17.4779 241.485C17.3003 243.416 17.1872 245.378 17.1872 247.356C17.1872 283.409 47.3079 312.641 84.4379 312.641C98.1985 312.634 111.612 308.539 122.795 300.929C131.786 308.423 143.341 312.558 155.306 312.564C183.069 312.564 205.551 290.736 205.551 263.788C205.551 262.623 205.454 261.474 205.373 260.339H205.551C235.267 260.339 259.364 236.948 259.364 208.115C259.409 198.565 256.702 189.185 251.535 180.991C246.369 172.796 238.939 166.098 230.051 161.623Z" fill="url(#paint0_linear)"/>
<path d="M120.647 92.2915H112.782V455.917H120.647V92.2915Z" fill="#DCE7FF"/>
<path d="M176.558 133.332L112.068 199.431L117.839 204.503L182.329 138.404L176.558 133.332Z" fill="#DCE7FF"/>
<path d="M50.4289 208.688L45.7394 214.681L112.605 261.813L117.294 255.82L50.4289 208.688Z" fill="#DCE7FF"/>
<defs>
<linearGradient id="paint0_linear" x1="20.5" y1="34.54" x2="124.5" y2="304.54" gradientUnits="userSpaceOnUse">
<stop stop-color="#0470DC"/>
<stop offset="1" stop-color="#70DDFF"/>
</linearGradient>
</defs>

</symbol>
<symbol id="tree3" viewBox="0 0 283 366">
<path d="M27.406 137.794C17.3054 127.595 11.675 114.129 11.6593 100.132C11.7155 90.4754 14.4084 80.9977 19.4752 72.6237C24.542 64.2497 31.8095 57.2654 40.5687 52.3525C36.6396 46.9428 34.5334 40.5285 34.5284 33.9581C34.5284 15.5637 50.8404 0.541685 70.9801 0.541685C78.7532 0.469603 86.3455 2.76735 92.6398 7.09682C98.9342 11.4263 103.598 17.5589 105.946 24.5923C110.913 17.1754 117.785 11.0776 125.915 6.87088C134.045 2.66413 143.167 0.486327 152.427 0.541685C182.419 0.541685 206.741 22.8295 206.741 50.3291C206.755 56.2046 205.639 62.0331 203.446 67.5278C204.545 67.4512 205.643 67.3746 206.773 67.3746C230.838 67.3746 250.38 85.2631 250.38 107.336C250.378 108.688 250.302 110.039 250.154 111.383C259.745 115.071 267.968 121.378 273.781 129.504C279.594 137.63 282.736 147.21 282.81 157.032C282.81 184.455 258.584 206.666 228.674 206.666C225.534 206.665 222.401 206.414 219.306 205.915C219.468 207.57 219.565 209.241 219.565 210.927C219.565 241.692 192.383 266.632 158.839 266.632C146.542 266.638 134.521 263.17 124.309 256.668C116.034 263.115 105.653 266.627 94.9474 266.601C69.8818 266.601 49.5645 247.961 49.5645 224.984C49.5645 223.987 49.6614 223.006 49.726 222.041H49.5645C22.7385 222.041 0.983826 202.113 0.983826 177.48C1.04735 169.184 3.55569 161.07 8.22513 154.057C12.8946 147.043 19.5387 141.41 27.406 137.794V137.794Z" fill="url(#paint0_linear)"/>
<path d="M135.243 79.5303H125.423V389.077H135.243V79.5303Z" fill="#DCE7FF"/>
<path d="M76.5978 112.608L69.5856 119.132L127.823 175.517L134.835 168.992L76.5978 112.608Z" fill="#DCE7FF"/>
<path d="M188.896 176.663L128.521 216.877L134.161 224.506L194.537 184.292L188.896 176.663Z" fill="#DCE7FF"/>
<defs>
<linearGradient id="paint0_linear" x1="98" y1="76.5693" x2="215" y2="347.569" gradientUnits="userSpaceOnUse">
<stop stop-color="#0470DC"/>
<stop offset="1" stop-color="#6BD7FD"/>
<stop offset="1" stop-color="#70DDFF"/>
</linearGradient>
</defs>

</symbol>
<symbol id="tw" viewBox="0 0 14 12">
<path d="M12.5508 3.44629C12.569 3.51921 12.5781 3.6377 12.5781 3.80176C12.5781 5.11426 12.2591 6.38118 11.6211 7.60254C10.9648 8.89681 10.0443 9.92676 8.85938 10.6924C7.5651 11.5492 6.07943 11.9775 4.40234 11.9775C2.79818 11.9775 1.33073 11.5492 0 10.6924C0.200521 10.7106 0.428385 10.7197 0.683594 10.7197C2.01432 10.7197 3.20833 10.3096 4.26562 9.48926C3.6276 9.48926 3.0625 9.30697 2.57031 8.94238C2.09635 8.55957 1.76823 8.08561 1.58594 7.52051C1.76823 7.53874 1.94141 7.54785 2.10547 7.54785C2.36068 7.54785 2.61589 7.52051 2.87109 7.46582C2.21484 7.31999 1.66797 6.98275 1.23047 6.4541C0.792969 5.92546 0.574219 5.32389 0.574219 4.64941V4.59473C0.97526 4.83171 1.40365 4.95931 1.85938 4.97754C1.47656 4.7041 1.16667 4.35775 0.929688 3.93848C0.692708 3.51921 0.574219 3.06348 0.574219 2.57129C0.574219 2.06087 0.710938 1.5778 0.984375 1.12207C1.69531 2.0153 2.5612 2.72624 3.58203 3.25488C4.62109 3.78353 5.72396 4.0752 6.89062 4.12988C6.85417 3.91113 6.83594 3.69238 6.83594 3.47363C6.83594 2.96322 6.96354 2.48926 7.21875 2.05176C7.47396 1.59603 7.82031 1.24056 8.25781 0.985352C8.69531 0.730143 9.16927 0.602539 9.67969 0.602539C10.099 0.602539 10.4818 0.68457 10.8281 0.848633C11.1927 1.0127 11.5117 1.23145 11.7852 1.50488C12.4414 1.37728 13.0521 1.14941 13.6172 0.821289C13.3984 1.49577 12.9792 2.02441 12.3594 2.40723C12.9062 2.33431 13.4531 2.17936 14 1.94238C13.599 2.52572 13.1159 3.02702 12.5508 3.44629Z" fill="#BDD3DF"/>

</symbol>
<symbol id="wave-hero" viewBox="0 0 1440 913">
<path opacity="0.2" d="M459.5 829.5C168.997 848.31 34.5 770 -1 743V630.5H1440V845C1203.5 1021 895.057 795.465 662.5 814.5C522 826 529 825 459.5 829.5Z" fill="url(#paint0_linear)"/>
<path opacity="0.2" d="M1440 2H0V740C423 704 397.5 928 814.5 851C1039.82 809.394 1226.5 922 1440 843V2Z" fill="url(#paint1_linear)"/>
<path d="M0 0H1440V845C1116 690 1062 925.5 629 800C408.927 736.215 294 676.5 0 740.5V0Z" fill="url(#paint2_linear)"/>
<defs>
<linearGradient id="paint0_linear" x1="41.4997" y1="553.001" x2="1679.5" y2="996.501" gradientUnits="userSpaceOnUse">
<stop stop-color="#0470DC"/>
<stop offset="1" stop-color="#13F1FC"/>
</linearGradient>
<linearGradient id="paint1_linear" x1="81.5" y1="763" x2="1440" y2="-288.5" gradientUnits="userSpaceOnUse">
<stop stop-color="#0470DC"/>
<stop offset="1" stop-color="#13F1FC"/>
</linearGradient>
<linearGradient id="paint2_linear" x1="0.000103962" y1="-63.0002" x2="1858.5" y2="1111" gradientUnits="userSpaceOnUse">
<stop stop-color="#0470DC"/>
<stop offset="1" stop-color="#13F1FC"/>
</linearGradient>
</defs>

</symbol>
<symbol id="wave" viewBox="0 0 1440 1219">
<path d="M-59.4282 304.172C-137.837 387.569 -66.8006 651.831 -38.4812 720.554C25.0214 875.468 -80.8518 857.441 -83.8133 998.058C-86.7748 1138.68 200.391 1216.62 465.751 1137.76C785.764 1042.66 665.637 993.38 1099.66 1008.76C1533.69 1024.13 1579.15 639.195 1551.7 593.768C1528.43 555.273 1579.04 388.877 1510.5 361.54C1478.2 348.658 1478.5 239.04 1367.43 262.227C1245.97 287.581 1142.36 108.289 1017.74 198.281C893.11 288.272 886.692 80.2029 708.708 139.749C530.724 199.294 325.817 131.617 223.5 185.54C27.443 288.866 37.7605 200.801 -59.4282 304.172Z" fill="url(#paint0_linear)"/>
<defs>
<linearGradient id="paint0_linear" x1="-101.88" y1="345.598" x2="1840.42" y2="852.308" gradientUnits="userSpaceOnUse">
<stop stop-color="#0470DC"/>
<stop offset="1" stop-color="#70DDFF"/>
</linearGradient>
</defs>

</symbol></svg>