<svg width="260" height="456" viewBox="0 0 260 456" fill="none" xmlns="http://www.w3.org/2000/svg">
<path d="M230.051 161.623C236.696 154.407 241.632 145.922 244.526 136.74C247.42 127.559 248.204 117.895 246.826 108.401C245.448 98.9071 241.94 89.8043 236.539 81.7074C231.137 73.6104 223.968 66.7077 215.515 61.4655C219.886 55.0385 222.203 47.5477 222.186 39.8981C222.186 18.2694 204.129 0.733398 181.809 0.733398C172.997 0.79057 164.445 3.57383 157.45 8.66101C150.455 13.7482 145.399 20.8618 143.048 28.9228C137.796 20.375 130.282 13.2776 121.252 8.33321C112.221 3.38886 101.986 0.769125 91.5603 0.733398C58.3549 0.733398 31.432 26.7921 31.432 59.1049C31.4268 65.9751 32.6725 72.7945 35.1143 79.262C33.8869 79.1701 32.6756 79.0781 31.432 79.0781C4.76749 79.0781 -16.8419 100.048 -16.8419 125.922C-16.8419 127.455 -16.745 129.095 -16.5835 130.659C-27.4331 135.277 -36.6356 142.787 -43.0724 152.276C-49.5092 161.765 -52.903 172.824 -52.8413 184.11C-52.8413 216.3 -25.9992 242.359 7.09317 242.359C10.5751 242.357 14.05 242.064 17.4779 241.485C17.3003 243.416 17.1872 245.378 17.1872 247.356C17.1872 283.409 47.3079 312.641 84.4379 312.641C98.1985 312.634 111.612 308.539 122.795 300.929C131.786 308.423 143.341 312.558 155.306 312.564C183.069 312.564 205.551 290.736 205.551 263.788C205.551 262.623 205.454 261.474 205.373 260.339H205.551C235.267 260.339 259.364 236.948 259.364 208.115C259.409 198.565 256.702 189.185 251.535 180.991C246.369 172.796 238.939 166.098 230.051 161.623Z" fill="url(#paint0_linear)"/>
<path d="M120.647 92.2915H112.782V455.917H120.647V92.2915Z" fill="#DCE7FF"/>
<path d="M176.558 133.332L112.068 199.431L117.839 204.503L182.329 138.404L176.558 133.332Z" fill="#DCE7FF"/>
<path d="M50.4289 208.688L45.7394 214.681L112.605 261.813L117.294 255.82L50.4289 208.688Z" fill="#DCE7FF"/>
<defs>
<linearGradient id="paint0_linear" x1="20.5" y1="34.54" x2="124.5" y2="304.54" gradientUnits="userSpaceOnUse">
<stop stop-color="#0470DC"/>
<stop offset="1" stop-color="#70DDFF"/>
</linearGradient>
</defs>
</svg>
