<svg width="283" height="366" viewBox="0 0 283 366" fill="none" xmlns="http://www.w3.org/2000/svg">
<path d="M27.406 137.794C17.3054 127.595 11.675 114.129 11.6593 100.132C11.7155 90.4754 14.4084 80.9977 19.4752 72.6237C24.542 64.2497 31.8095 57.2654 40.5687 52.3525C36.6396 46.9428 34.5334 40.5285 34.5284 33.9581C34.5284 15.5637 50.8404 0.541685 70.9801 0.541685C78.7532 0.469603 86.3455 2.76735 92.6398 7.09682C98.9342 11.4263 103.598 17.5589 105.946 24.5923C110.913 17.1754 117.785 11.0776 125.915 6.87088C134.045 2.66413 143.167 0.486327 152.427 0.541685C182.419 0.541685 206.741 22.8295 206.741 50.3291C206.755 56.2046 205.639 62.0331 203.446 67.5278C204.545 67.4512 205.643 67.3746 206.773 67.3746C230.838 67.3746 250.38 85.2631 250.38 107.336C250.378 108.688 250.302 110.039 250.154 111.383C259.745 115.071 267.968 121.378 273.781 129.504C279.594 137.63 282.736 147.21 282.81 157.032C282.81 184.455 258.584 206.666 228.674 206.666C225.534 206.665 222.401 206.414 219.306 205.915C219.468 207.57 219.565 209.241 219.565 210.927C219.565 241.692 192.383 266.632 158.839 266.632C146.542 266.638 134.521 263.17 124.309 256.668C116.034 263.115 105.653 266.627 94.9474 266.601C69.8818 266.601 49.5645 247.961 49.5645 224.984C49.5645 223.987 49.6614 223.006 49.726 222.041H49.5645C22.7385 222.041 0.983826 202.113 0.983826 177.48C1.04735 169.184 3.55569 161.07 8.22513 154.057C12.8946 147.043 19.5387 141.41 27.406 137.794V137.794Z" fill="url(#paint0_linear)"/>
<path d="M135.243 79.5303H125.423V389.077H135.243V79.5303Z" fill="#DCE7FF"/>
<path d="M76.5978 112.608L69.5856 119.132L127.823 175.517L134.835 168.992L76.5978 112.608Z" fill="#DCE7FF"/>
<path d="M188.896 176.663L128.521 216.877L134.161 224.506L194.537 184.292L188.896 176.663Z" fill="#DCE7FF"/>
<defs>
<linearGradient id="paint0_linear" x1="98" y1="76.5693" x2="215" y2="347.569" gradientUnits="userSpaceOnUse">
<stop stop-color="#0470DC"/>
<stop offset="1" stop-color="#6BD7FD"/>
<stop offset="1" stop-color="#70DDFF"/>
</linearGradient>
</defs>
</svg>
