<svg width="1440" height="1219" viewBox="0 0 1440 1219" fill="none" xmlns="http://www.w3.org/2000/svg">
<path d="M914.319 114.574C914.319 114.574 888.196 112.998 891.248 131.35C891.248 131.35 890.636 134.592 893.572 136.065C893.572 136.065 893.62 134.689 896.259 135.164C897.197 135.322 898.15 135.368 899.099 135.301C900.381 135.216 901.6 134.714 902.57 133.869C902.57 133.869 909.926 130.827 912.786 118.794C912.786 118.794 914.896 116.171 914.814 115.496L910.4 117.383C910.4 117.383 911.906 120.57 910.723 123.22C910.723 123.22 910.579 117.5 909.733 117.63C909.562 117.63 907.437 118.739 907.437 118.739C907.437 118.739 910.036 124.294 908.077 128.328C908.077 128.328 908.819 121.485 906.626 119.138L903.519 120.983C903.519 120.983 906.551 126.717 904.495 131.398C904.495 131.398 905.024 124.218 902.866 121.423L900.054 123.626C900.054 123.626 902.9 129.278 901.168 133.16C901.168 133.16 900.934 124.803 899.442 124.17C899.442 124.17 896.981 126.345 896.603 127.24C896.603 127.24 898.556 131.371 897.346 133.512C897.346 133.512 896.603 127.942 895.971 127.915C895.971 127.915 893.517 131.605 893.262 134.11C893.385 131.774 894.115 129.51 895.38 127.543C893.963 127.812 892.656 128.489 891.619 129.491C891.619 129.491 892.004 126.882 895.985 126.655C895.985 126.655 898.047 123.853 898.556 123.681C898.556 123.681 894.596 123.351 892.197 124.418C892.197 124.418 894.307 121.96 899.277 123.076L902.027 120.804C902.027 120.804 896.809 120.115 894.603 120.88C894.603 120.88 897.146 118.704 902.776 120.288L905.801 118.477C905.801 118.477 901.353 117.52 898.707 117.864C898.707 117.864 901.505 116.357 906.688 117.988L908.853 117.018C908.853 117.018 905.595 116.378 904.639 116.274C903.684 116.171 903.636 115.909 903.636 115.909C905.699 115.566 907.818 115.804 909.754 116.598C909.754 116.598 914.401 114.863 914.319 114.574Z" fill="#6C63FF"/>
<path d="M-59.4282 304.172C-137.837 387.569 -66.8006 651.831 -38.4812 720.554C25.0214 875.468 -80.8518 857.441 -83.8133 998.058C-86.7748 1138.68 200.391 1216.62 465.751 1137.76C785.764 1042.66 665.637 993.38 1099.66 1008.76C1533.69 1024.13 1579.15 639.195 1551.7 593.768C1528.43 555.273 1579.04 388.877 1510.5 361.54C1478.2 348.658 1478.5 239.04 1367.43 262.227C1245.97 287.581 1142.36 108.289 1017.74 198.281C893.11 288.272 886.692 80.2029 708.708 139.749C530.724 199.294 325.817 131.617 223.5 185.54C27.443 288.866 37.7605 200.801 -59.4282 304.172Z" fill="url(#paint4_linear)"/>
<path d="M288.627 245.568C288.627 245.568 268.862 244.32 271.191 258.816C271.191 258.816 270.721 261.379 272.947 262.541C272.947 262.541 272.982 261.467 274.975 261.833C275.684 261.956 276.405 261.993 277.123 261.941C278.091 261.875 279.012 261.481 279.747 260.818C279.747 260.818 285.303 258.415 287.463 248.912C287.463 248.912 289.062 246.838 288.998 246.305L285.663 247.796C285.663 247.796 286.803 250.315 285.897 252.408C285.897 252.408 285.789 247.887 285.149 247.985C285.019 248.005 283.416 248.858 283.416 248.858C283.416 248.858 285.376 253.243 283.897 256.433C283.897 256.433 284.458 251.027 282.803 249.175L280.456 250.61C280.456 250.61 282.747 255.14 281.193 258.838C281.193 258.838 281.592 253.167 279.961 250.958L277.834 252.696C277.834 252.696 279.987 257.16 278.674 260.226C278.674 260.226 278.503 253.627 277.374 253.128C277.374 253.128 275.512 254.848 275.228 255.551C275.228 255.551 276.703 258.794 275.787 260.504C275.787 260.504 275.226 256.106 274.766 256.081C274.766 256.081 272.911 258.995 272.719 260.995C272.719 260.995 272.799 258.025 274.318 255.806C274.318 255.806 272.524 256.128 271.477 257.344C271.477 257.344 271.766 255.285 274.775 255.103C274.775 255.103 276.308 252.892 276.717 252.759C276.717 252.759 273.726 252.496 271.911 253.339C271.911 253.339 273.508 251.396 277.266 252.28L279.367 250.484C279.367 250.484 275.428 249.922 273.757 250.543C273.757 250.543 275.679 248.823 279.933 250.076L282.219 248.646C282.219 248.646 278.86 247.89 276.86 248.155C276.86 248.155 278.972 246.963 282.89 248.256L284.534 247.487C284.534 247.487 282.073 246.98 281.353 246.899C280.632 246.818 280.595 246.612 280.595 246.612C282.153 246.34 283.753 246.526 285.217 247.15C285.217 247.15 288.686 245.796 288.627 245.568Z" fill="#13F1FC"/>
<path d="M278.622 303.616C278.622 303.616 220.739 300.119 227.559 340.734C227.559 340.734 226.184 347.914 232.701 351.17C232.701 351.17 232.804 348.162 238.64 349.188C240.718 349.533 242.829 349.634 244.93 349.491C247.765 349.304 250.462 348.2 252.616 346.345C252.616 346.345 268.888 339.612 275.212 312.985C275.212 312.985 279.894 307.175 279.708 305.681L269.939 309.86C269.939 309.86 273.28 316.916 270.627 322.781C270.627 322.781 270.311 310.115 268.434 310.39C268.056 310.445 263.361 312.834 263.361 312.834C263.361 312.834 269.101 325.122 264.77 334.057C264.77 334.057 266.413 318.912 261.566 313.722L254.692 317.742C254.692 317.742 261.401 330.436 256.851 340.796C256.851 340.796 258.019 324.908 253.241 318.72L247.013 323.586C247.013 323.586 253.317 336.094 249.474 344.686C249.474 344.686 248.972 326.195 245.666 324.798C245.666 324.798 240.214 329.617 239.383 331.586C239.383 331.586 243.7 340.672 241.019 345.463C241.019 345.463 239.376 333.141 238.028 333.072C238.028 333.072 232.598 341.237 232.034 346.84C232.034 346.84 232.268 338.518 236.715 332.301C236.715 332.301 231.463 333.203 228.397 336.611C228.397 336.611 229.243 330.842 238.056 330.333C238.056 330.333 242.545 324.137 243.741 323.765C243.741 323.765 234.983 323.029 229.669 325.39C229.669 325.39 234.344 319.945 245.35 322.423L251.502 317.391C251.502 317.391 239.967 315.815 235.072 317.556C235.072 317.556 240.702 312.737 253.159 316.248L259.855 312.242C259.855 312.242 250.017 310.122 244.16 310.865C244.16 310.865 250.347 307.526 261.821 311.147L266.633 308.993C266.633 308.993 259.428 307.574 257.318 307.347C255.208 307.12 255.098 306.542 255.098 306.542C259.662 305.78 264.348 306.302 268.633 308.049C268.633 308.049 278.794 304.256 278.622 303.616Z" fill="#13F1FC"/>
<circle cx="959.5" cy="166.04" r="34.5" fill="#E8F5FF"/>
<path opacity="0.5" d="M0 894.636C29.5 857.969 106 787.336 176 798.136C263.5 811.636 311 941.135 405 894.636C499 848.136 522.5 767.136 608 770.636C693.5 774.136 796 957.636 915 888.636C1034 819.636 1141 655.636 1291 748.136C1441 840.636 1422 954.136 1495 929.136" stroke="#E7EFFD" stroke-width="3" stroke-dasharray="10 5"/>
<circle cx="1315.5" cy="225.041" r="6.5" fill="#FECB42"/>
<defs>
<linearGradient id="paint4_linear" x1="-101.88" y1="345.598" x2="1840.42" y2="852.308" gradientUnits="userSpaceOnUse">
<stop stop-color="#0470DC"/>
<stop offset="1" stop-color="#70DDFF"/>
</linearGradient>
</defs>
</svg>
